<svg width="20" height="20" viewBox="0 0 20 20" fill="none" xmlns="http://www.w3.org/2000/svg">
<path d="M16.364 3.91701L12.828 7.45301L16.364 3.91701ZM12.828 13.109L16.364 16.645L12.828 13.109ZM7.172 7.45301L3.636 3.91701L7.172 7.45301ZM7.172 13.109L3.636 16.645L7.172 13.109ZM19 10.281C19 11.4629 18.7672 12.6332 18.3149 13.7252C17.8626 14.8171 17.1997 15.8092 16.364 16.645C15.5282 17.4807 14.5361 18.1436 13.4442 18.5959C12.3522 19.0482 11.1819 19.281 10 19.281C8.8181 19.281 7.64778 19.0482 6.55585 18.5959C5.46392 18.1436 4.47177 17.4807 3.63604 16.645C2.80031 15.8092 2.13738 14.8171 1.68508 13.7252C1.23279 12.6332 1 11.4629 1 10.281C1 7.89406 1.94821 5.60487 3.63604 3.91704C5.32387 2.22922 7.61305 1.28101 10 1.28101C12.3869 1.28101 14.6761 2.22922 16.364 3.91704C18.0518 5.60487 19 7.89406 19 10.281ZM14 10.281C14 11.3419 13.5786 12.3593 12.8284 13.1094C12.0783 13.8596 11.0609 14.281 10 14.281C8.93913 14.281 7.92172 13.8596 7.17157 13.1094C6.42143 12.3593 6 11.3419 6 10.281C6 9.22014 6.42143 8.20272 7.17157 7.45258C7.92172 6.70243 8.93913 6.28101 10 6.28101C11.0609 6.28101 12.0783 6.70243 12.8284 7.45258C13.5786 8.20272 14 9.22014 14 10.281V10.281Z" stroke="#090F32" stroke-linecap="round" stroke-linejoin="round"/>
</svg>
