<svg width="16" height="16" viewBox="0 0 16 16" fill="none" xmlns="http://www.w3.org/2000/svg">
    <path d="M7.99999 10.5V12.1667V10.5ZM2.99999 15.5H13C13.442 15.5 13.8659 15.3244 14.1785 15.0118C14.4911 14.6993 14.6667 14.2754 14.6667 13.8333V8.83333C14.6667 8.39131 14.4911 7.96738 14.1785 7.65482C13.8659 7.34226 13.442 7.16667 13 7.16667H2.99999C2.55797 7.16667 2.13404 7.34226 1.82148 7.65482C1.50892 7.96738 1.33333 8.39131 1.33333 8.83333V13.8333C1.33333 14.2754 1.50892 14.6993 1.82148 15.0118C2.13404 15.3244 2.55797 15.5 2.99999 15.5ZM11.3333 7.16667V3.83333C11.3333 2.94928 10.9821 2.10143 10.357 1.47631C9.7319 0.851189 8.88405 0.5 7.99999 0.5C7.11594 0.5 6.26809 0.851189 5.64297 1.47631C5.01785 2.10143 4.66666 2.94928 4.66666 3.83333V7.16667H11.3333Z" stroke="#080E31" stroke-linecap="round" stroke-linejoin="round" />
</svg>
