<svg width="533" height="540" viewBox="0 0 533 540" fill="none" xmlns="http://www.w3.org/2000/svg">
    <g opacity="0.1">
    <path d="M269.079 264.025L237.454 270.956L263.783 239.545L295.26 230.402L269.079 264.025Z" fill="#FCFCFC"/>
    <path d="M237.454 271.693H237.602L269.226 264.762C269.373 264.762 269.52 264.615 269.667 264.467L295.996 230.844C296.143 230.549 296.143 230.254 295.996 229.959C295.849 229.664 295.555 229.517 295.113 229.664L263.489 238.807C263.342 238.807 263.195 238.955 263.195 239.102L236.866 270.513C236.719 270.808 236.572 271.103 236.866 271.398C237.013 271.546 237.16 271.693 237.454 271.693ZM268.637 263.287L239.514 269.776L264.225 240.135L293.348 231.729L268.637 263.287Z" fill="#080E31"/>
    <path d="M272.609 307.381L237.454 270.956L269.079 264.025L305.557 303.547L272.609 307.381Z" fill="#FCFCFC"/>
    <path d="M272.609 308.118C272.756 308.118 272.756 308.118 272.609 308.118L305.557 304.284C305.851 304.284 305.998 304.137 306.145 303.842C306.292 303.547 306.145 303.252 305.998 303.104L269.52 263.582C269.373 263.435 269.079 263.287 268.784 263.435L237.16 270.366C236.866 270.366 236.719 270.661 236.572 270.808C236.425 271.103 236.572 271.398 236.719 271.546L271.873 307.971C272.315 308.118 272.462 308.118 272.609 308.118ZM304.086 302.957L273.05 306.644L239.072 271.398L268.932 264.762L304.086 302.957Z" fill="#080E31"/>
    <path d="M305.557 303.547L269.079 264.025L295.26 230.402L328.797 269.186L305.557 303.547Z" fill="#FCFCFC"/>
    <path d="M305.557 304.283C305.851 304.283 305.998 304.136 306.145 303.988L329.385 269.628C329.532 269.333 329.532 269.038 329.385 268.743L295.849 229.958C295.702 229.811 295.555 229.663 295.26 229.663C295.113 229.663 294.819 229.811 294.672 229.958L268.343 263.582C268.049 263.876 268.196 264.319 268.343 264.466L304.821 303.988C305.115 304.283 305.262 304.283 305.557 304.283ZM327.914 269.333L305.409 302.366L269.961 263.876L295.26 231.433L327.914 269.333Z" fill="#080E31"/>
    <path d="M23.6223 476.596L0.90588 481.575L19.8186 459.012L42.4293 452.444L23.6223 476.596Z" fill="#FCFCFC"/>
    <path d="M0.905987 482.105H1.01165L23.728 477.126C23.8336 477.126 23.9393 477.02 24.0449 476.914L42.9576 452.762C43.0633 452.55 43.0633 452.338 42.9576 452.126C42.852 451.914 42.6406 451.808 42.3237 451.914L19.6073 458.482C19.5017 458.482 19.396 458.588 19.396 458.694L0.483364 481.257C0.377708 481.469 0.272049 481.681 0.483364 481.893C0.589024 481.999 0.694672 482.105 0.905987 482.105ZM23.3053 476.067L2.38519 480.728L20.1356 459.436L41.0558 453.397L23.3053 476.067Z" fill="#080E31"/>
    <path d="M26.1581 507.74L0.905937 481.575L23.6223 476.596L49.8254 504.986L26.1581 507.74Z" fill="#FCFCFC"/>
    <path d="M26.1581 508.27C26.2637 508.27 26.2637 508.27 26.1581 508.27L49.8254 505.516C50.0367 505.516 50.1423 505.41 50.248 505.198C50.3537 504.986 50.248 504.774 50.1423 504.668L23.9393 476.279C23.8336 476.173 23.6223 476.067 23.411 476.173L0.694645 481.151C0.48333 481.151 0.377663 481.363 0.272003 481.469C0.166348 481.681 0.272011 481.893 0.377666 481.999L25.6298 508.164C25.9468 508.27 26.0524 508.27 26.1581 508.27ZM48.7688 504.562L26.4751 507.211L2.0682 481.893L23.5166 477.126L48.7688 504.562Z" fill="#080E31"/>
    <path d="M49.8253 504.986L23.6222 476.596L42.4292 452.444L66.5191 480.304L49.8253 504.986Z" fill="#FCFCFC"/>
    <path d="M49.8253 505.516C50.0366 505.516 50.1423 505.41 50.2479 505.304L66.9418 480.622C67.0475 480.41 67.0475 480.198 66.9418 479.986L42.8519 452.126C42.7463 452.02 42.6406 451.914 42.4293 451.914C42.3236 451.914 42.1123 452.02 42.0067 452.126L23.094 476.279C22.8827 476.49 22.9883 476.808 23.094 476.914L49.297 505.304C49.5083 505.516 49.614 505.516 49.8253 505.516ZM65.8852 480.41L49.7197 504.139L24.2562 476.49L42.4293 453.186L65.8852 480.41Z" fill="#080E31"/>
    <path d="M126.487 426.167L107.29 430.374L123.273 411.306L142.382 405.755L126.487 426.167Z" fill="#FCFCFC"/>
    <path d="M107.29 430.822H107.379L126.577 426.614C126.666 426.614 126.755 426.525 126.845 426.435L142.828 406.024C142.917 405.845 142.917 405.666 142.828 405.487C142.739 405.307 142.56 405.218 142.292 405.307L123.094 410.858C123.005 410.858 122.916 410.947 122.916 411.037L106.933 430.106C106.843 430.285 106.754 430.464 106.933 430.643C107.022 430.732 107.111 430.822 107.29 430.822ZM126.22 425.719L108.54 429.658L123.541 411.664L141.221 406.561L126.22 425.719Z" fill="#080E31"/>
    <path d="M128.631 452.487L107.29 430.374L126.488 426.167L148.632 450.159L128.631 452.487Z" fill="#FCFCFC"/>
    <path d="M128.631 452.934C128.72 452.934 128.72 452.934 128.631 452.934L148.632 450.606C148.811 450.606 148.9 450.517 148.989 450.338C149.078 450.159 148.989 449.98 148.9 449.89L126.755 425.898C126.666 425.808 126.488 425.719 126.309 425.808L107.111 430.016C106.933 430.016 106.843 430.195 106.754 430.285C106.665 430.464 106.754 430.643 106.843 430.732L128.184 452.845C128.452 452.934 128.541 452.934 128.631 452.934ZM147.739 449.801L128.898 452.039L108.272 430.643L126.398 426.614L147.739 449.801Z" fill="#080E31"/>
    <path d="M148.632 450.159L126.487 426.167L142.381 405.755L162.74 429.3L148.632 450.159Z" fill="#FCFCFC"/>
    <path d="M148.632 450.607C148.811 450.607 148.9 450.518 148.989 450.428L163.097 429.569C163.187 429.39 163.187 429.211 163.097 429.032L142.739 405.487C142.649 405.398 142.56 405.308 142.381 405.308C142.292 405.308 142.114 405.398 142.024 405.487L126.041 425.899C125.862 426.078 125.952 426.346 126.041 426.436L148.185 450.428C148.364 450.607 148.453 450.607 148.632 450.607ZM162.204 429.39L148.543 449.443L127.023 426.078L142.381 406.383L162.204 429.39Z" fill="#080E31"/>
    <path d="M510.93 153.688L485.189 165.486C485.189 165.486 495.632 151.329 503.722 139.678C512.4 135.107 529.757 125.816 529.757 125.816L510.93 153.688Z" fill="#FCFCFC"/>
    <path d="M485.042 166.223C485.189 166.223 485.189 166.223 485.336 166.223L511.077 154.425C511.224 154.425 511.371 154.278 511.371 154.131L530.345 126.259C530.492 125.964 530.492 125.669 530.345 125.374C530.051 125.079 529.757 125.079 529.463 125.226L503.428 139.089C503.281 139.089 503.281 139.236 503.134 139.384C495.044 150.886 484.601 165.043 484.601 165.191C484.454 165.486 484.454 165.781 484.601 166.076C484.601 166.223 484.895 166.223 485.042 166.223ZM510.341 153.098L487.395 163.569C490.631 159.145 498.133 148.969 504.311 140.121L527.403 127.881L510.341 153.098Z" fill="#080E31"/>
    <path d="M508.282 195.717L485.042 165.486L510.93 153.688L534.611 186.721L508.282 195.717Z" fill="#FCFCFC"/>
    <path d="M508.282 196.454C508.429 196.454 508.429 196.454 508.576 196.454L534.905 187.459C535.199 187.311 535.346 187.164 535.346 187.016C535.346 186.721 535.346 186.574 535.199 186.426L511.518 153.246C511.371 152.951 510.93 152.803 510.635 152.951L484.895 164.748C484.748 164.896 484.601 165.043 484.454 165.191C484.454 165.338 484.454 165.633 484.601 165.781L507.694 196.159C507.841 196.307 508.135 196.454 508.282 196.454ZM533.434 186.426L508.429 194.832L486.072 165.781L510.488 154.573L533.434 186.426Z" fill="#080E31"/>
    <path d="M534.611 186.721L510.93 153.688L529.757 125.816L551.232 158.555L534.611 186.721Z" fill="#FCFCFC"/>
    <path d="M534.611 187.459C534.758 187.459 534.758 187.459 534.611 187.459C534.905 187.459 535.052 187.311 535.199 187.164L551.967 158.997C552.114 158.702 552.114 158.407 551.967 158.26L530.345 125.374C530.198 125.226 530.051 125.079 529.757 125.079C529.463 125.079 529.316 125.226 529.169 125.374L510.341 153.246C510.194 153.541 510.194 153.836 510.341 154.131L534.022 187.164C534.17 187.311 534.464 187.459 534.611 187.459ZM550.496 158.555L534.611 185.394L511.812 153.688L529.757 127.143L550.496 158.555Z" fill="#080E31"/>
    <path d="M407.82 256.032L365.606 268.862C365.606 268.862 389.728 237.599 401.642 221.819C415.763 216.51 444.004 205.893 444.004 205.893L407.82 256.032Z" fill="#FCFCFC"/>
    <path d="M365.459 269.6H365.606L407.82 256.77C407.967 256.77 408.114 256.622 408.261 256.475L444.445 206.335C444.592 206.04 444.592 205.745 444.445 205.45C444.298 205.155 443.857 205.155 443.563 205.155L401.201 221.082C401.054 221.082 400.907 221.23 400.907 221.377L364.87 268.42C364.723 268.715 364.723 269.01 364.87 269.305C365.017 269.452 365.311 269.6 365.459 269.6ZM407.379 255.443L367.518 267.535L402.084 222.409L441.945 207.515L407.379 255.443Z" fill="#080E31"/>
    <path d="M411.056 317.233L365.459 268.862L407.82 256.033L454.889 308.827L411.056 317.233Z" fill="#FCFCFC"/>
    <path d="M411.056 317.97C411.203 317.97 411.203 317.97 411.056 317.97L455.036 309.417C455.33 309.417 455.477 309.122 455.624 308.974C455.771 308.679 455.624 308.384 455.477 308.237L408.261 255.443C408.114 255.295 407.82 255.148 407.526 255.295L365.311 268.125C365.017 268.273 364.87 268.42 364.87 268.567C364.87 268.862 364.87 269.01 365.017 269.305L410.615 317.822C410.762 317.97 410.909 317.97 411.056 317.97ZM453.565 308.237L411.35 316.495L366.929 269.157L407.673 256.77L453.565 308.237Z" fill="#080E31"/>
    <path d="M454.889 308.827L407.82 256.032L444.004 205.893L487.248 257.95L454.889 308.827Z" fill="#FCFCFC"/>
    <path d="M454.889 309.564C455.036 309.564 455.036 309.564 454.889 309.564C455.183 309.564 455.33 309.417 455.477 309.269L487.689 258.392C487.837 258.097 487.837 257.802 487.689 257.507L444.445 205.598C444.298 205.45 444.151 205.303 443.857 205.303C443.563 205.303 443.416 205.45 443.269 205.598L407.085 255.738C406.938 256.032 406.938 256.475 407.085 256.622L454.3 309.417C454.594 309.417 454.741 309.564 454.889 309.564ZM486.219 257.95L454.741 307.5L408.556 255.885L443.857 207.072L486.219 257.95Z" fill="#080E31"/>
    <path d="M148.777 39.8502L115.712 49.8994C115.712 49.8994 134.607 25.4117 143.939 13.0524C154.999 8.89407 177.119 0.577492 177.119 0.577492L148.777 39.8502Z" fill="#FCFCFC"/>
    <path d="M115.597 50.477H115.712L148.777 40.4278C148.893 40.4278 149.008 40.3123 149.123 40.1968L177.465 0.924063C177.58 0.693047 177.58 0.462033 177.465 0.231017C177.349 8.77814e-07 177.004 0 176.773 0L143.593 12.4749C143.478 12.4749 143.363 12.5904 143.363 12.7059L115.136 49.5529C115.021 49.7839 115.021 50.015 115.136 50.246C115.252 50.3615 115.482 50.477 115.597 50.477ZM148.432 39.3882L117.21 48.8599L144.284 13.5144L175.506 1.84813L148.432 39.3882Z" fill="#080E31"/>
    <path d="M151.312 87.786L115.597 49.8994L148.777 39.8502L185.644 81.2021L151.312 87.786Z" fill="#FCFCFC"/>
    <path d="M151.312 88.3636C151.427 88.3636 151.427 88.3636 151.312 88.3636L185.76 81.6642C185.99 81.6642 186.105 81.4332 186.22 81.3177C186.336 81.0866 186.22 80.8556 186.105 80.7401L149.123 39.3883C149.008 39.2728 148.777 39.1573 148.547 39.2728L115.482 49.322C115.252 49.4375 115.136 49.553 115.136 49.6685C115.136 49.8995 115.136 50.015 115.252 50.246L150.966 88.2481C151.082 88.3636 151.197 88.3636 151.312 88.3636ZM184.608 80.7401L151.542 87.2086L116.749 50.1305L148.662 40.4279L184.608 80.7401Z" fill="#080E31"/>
    <path d="M185.645 81.2021L148.778 39.8503L177.119 0.577553L210.991 41.3519L185.645 81.2021Z" fill="#FCFCFC"/>
    <path d="M185.644 81.7797C185.76 81.7797 185.76 81.7797 185.644 81.7797C185.875 81.7797 185.99 81.6642 186.105 81.5487L211.336 41.6984C211.451 41.4674 211.451 41.2364 211.336 41.0053L177.465 0.346522C177.349 0.231014 177.234 0.115509 177.004 0.115509C176.773 0.115509 176.658 0.231014 176.543 0.346522L148.201 39.6192C148.086 39.8503 148.086 40.1968 148.201 40.3123L185.184 81.6642C185.414 81.6642 185.529 81.7797 185.644 81.7797ZM210.184 41.3519L185.529 80.1626L149.354 39.7347L177.004 1.5016L210.184 41.3519Z" fill="#080E31"/>
    <path d="M473.569 321.952C454.741 327.703 414.586 339.796 414.586 339.796L456.654 281.692L514.312 260.162C514.312 260.162 486.366 302.043 473.569 321.952Z" fill="#FCFCFC"/>
    <path d="M414.586 340.533H414.733C414.733 340.533 454.741 328.293 473.716 322.689C473.863 322.689 474.01 322.542 474.157 322.394C486.807 302.781 514.754 261.046 514.901 260.604C515.048 260.309 515.048 260.014 514.901 259.719C514.754 259.424 514.312 259.424 514.018 259.424L456.359 280.955C456.212 280.955 456.065 281.102 456.065 281.25L413.998 339.353C413.851 339.648 413.851 339.943 413.998 340.238C414.145 340.385 414.439 340.533 414.586 340.533ZM473.128 321.214C456.801 326.081 425.03 335.814 416.498 338.321L457.095 282.282L512.547 261.636C506.958 270.042 484.306 303.96 473.128 321.214Z" fill="#080E31"/>
    <path d="M469.156 401.291C469.156 401.291 421.941 348.201 414.586 339.796C423.706 336.994 473.569 321.952 473.569 321.952L529.61 389.346L469.156 401.291Z" fill="#FCFCFC"/>
    <path d="M469.156 402.028C469.303 402.028 469.303 402.028 469.156 402.028L529.757 390.083C530.051 390.083 530.198 389.788 530.345 389.641C530.492 389.346 530.345 389.051 530.198 388.903L474.157 321.509C474.01 321.214 473.716 321.214 473.422 321.214L414.439 339.058C414.145 339.058 413.998 339.353 413.998 339.501C413.998 339.796 413.998 339.943 414.145 340.238C421.499 348.496 468.715 401.733 468.715 401.733C468.862 401.881 469.009 402.028 469.156 402.028ZM528.286 388.903L469.45 400.553C465.626 396.277 424.882 350.413 415.91 340.238L473.275 322.689L528.286 388.903Z" fill="#080E31"/>
    <path d="M529.61 389.346C510.93 366.93 473.569 321.952 473.569 321.952L514.313 260.162L565.352 327.261C565.352 327.261 541.524 368.7 529.61 389.346Z" fill="#FCFCFC"/>
    <path d="M529.61 390.083C529.904 390.083 530.198 389.935 530.198 389.788L565.941 327.703C566.088 327.408 566.088 327.113 565.941 326.818L514.901 259.719C514.754 259.572 514.46 259.424 514.313 259.424C514.018 259.424 513.871 259.572 513.724 259.719L472.981 321.509C472.833 321.804 472.833 322.099 472.981 322.394L529.021 389.788C529.169 389.935 529.463 390.083 529.61 390.083ZM564.47 327.408L529.463 388.018L474.451 321.804L514.46 261.489L564.47 327.408Z" fill="#080E31"/>
    <path d="M552.409 263.111L479.6 288.623L522.55 226.833L594.476 197.634L552.409 263.111Z" fill="#FCFCFC"/>
    <path d="M479.6 289.361C479.747 289.361 479.747 289.361 479.894 289.361L552.703 263.848C552.85 263.848 552.997 263.701 553.144 263.553L595.064 197.929C595.212 197.634 595.212 197.339 595.064 197.044C594.917 196.749 594.476 196.749 594.182 196.897L522.255 226.243C522.108 226.243 521.961 226.391 521.961 226.538L479.011 288.181C478.864 288.476 478.864 288.771 479.011 289.066C479.158 289.213 479.305 289.361 479.6 289.361ZM551.967 262.521L481.512 287.149L522.991 227.423L592.564 199.109L551.967 262.521Z" fill="#080E31"/>
    <path d="M537.259 359.999L479.6 288.623L552.409 263.111L611.244 342.745L537.259 359.999Z" fill="#FCFCFC"/>
    <path d="M537.258 360.736H537.406L611.391 343.482C611.685 343.482 611.833 343.187 611.98 343.04C612.127 342.745 611.98 342.597 611.833 342.303L552.997 262.816C552.85 262.521 552.409 262.521 552.114 262.521L479.305 287.886C479.011 288.034 478.864 288.181 478.864 288.328C478.864 288.623 478.864 288.771 479.011 289.066L536.67 360.441C536.817 360.736 536.964 360.736 537.258 360.736ZM609.92 342.303L537.406 359.262L480.776 289.066L552.114 263.996L609.92 342.303Z" fill="#080E31"/>
    <path d="M323.097 403.208L275.293 412.941L322.803 351.298L371.195 337.141L323.097 403.208Z" fill="#FCFCFC"/>
    <path d="M275.293 413.678H275.44L323.097 403.945C323.244 403.945 323.391 403.798 323.538 403.65L371.783 337.584C371.93 337.289 371.93 336.994 371.783 336.699C371.636 336.404 371.342 336.256 371.048 336.404L322.509 350.708C322.361 350.708 322.214 350.856 322.067 351.003L274.705 412.646C274.558 412.941 274.558 413.236 274.705 413.531C274.852 413.531 275.146 413.678 275.293 413.678ZM322.656 402.47L277.205 411.761L323.244 352.036L369.43 338.468L322.656 402.47Z" fill="#080E31"/>
    <path d="M334.129 468.685L275.293 412.941L323.097 403.208L383.551 463.966L334.129 468.685Z" fill="#FCFCFC"/>
    <path d="M334.129 469.422L383.698 464.703C383.992 464.703 384.286 464.555 384.286 464.26C384.433 463.965 384.286 463.67 384.139 463.523L323.685 402.765C323.538 402.618 323.244 402.47 322.95 402.618L275.293 412.351C274.999 412.351 274.852 412.646 274.705 412.941C274.558 413.236 274.705 413.531 274.852 413.678L333.54 469.127C333.687 469.274 333.834 469.422 334.129 469.422ZM381.933 463.376L334.276 467.947L276.764 413.531L322.656 404.093L381.933 463.376Z" fill="#080E31"/>
    <path d="M383.55 463.965L323.097 403.208L371.195 337.141L426.206 397.751L383.55 463.965Z" fill="#FCFCFC"/>
    <path d="M383.55 464.702C383.845 464.702 383.992 464.555 384.139 464.407L426.795 398.193C426.942 397.898 426.942 397.603 426.795 397.308L371.783 336.698C371.636 336.55 371.489 336.403 371.195 336.403C370.901 336.403 370.754 336.55 370.607 336.698L322.361 402.765C322.214 403.059 322.214 403.502 322.361 403.649L382.815 464.407C383.109 464.555 383.403 464.702 383.55 464.702ZM425.324 397.751L383.55 462.637L324.126 402.912L371.342 338.025L425.324 397.751Z" fill="#080E31"/>
    <path d="M410.026 364.276L451.653 352.183L417.087 403.503L375.608 412.056L410.026 364.276Z" fill="#FCFCFC"/>
    <path d="M375.608 412.793H375.755L417.234 404.24C417.381 404.24 417.528 404.093 417.675 403.945L452.241 352.625C452.388 352.331 452.388 352.036 452.241 351.741C452.094 351.446 451.8 351.446 451.505 351.446L409.879 363.686C409.732 363.686 409.585 363.833 409.438 363.981L375.019 411.614C374.872 411.909 374.872 412.203 375.019 412.498C375.166 412.646 375.313 412.793 375.608 412.793ZM416.645 402.765L377.226 410.876L410.321 365.013L449.74 353.51L416.645 402.765Z" fill="#080E31"/>
    <path d="M419.146 456.002L375.608 412.056L417.087 403.503L462.39 451.873L419.146 456.002Z" fill="#FCFCFC"/>
    <path d="M419.146 456.739C419.146 456.739 419.293 456.739 419.146 456.739L462.537 452.61C462.831 452.61 463.126 452.463 463.126 452.168C463.273 451.873 463.126 451.578 462.979 451.43L417.675 403.06C417.528 402.913 417.234 402.765 416.94 402.913L375.461 411.466C375.166 411.466 375.019 411.761 374.872 411.908C374.725 412.203 374.872 412.498 375.019 412.646L418.558 456.739C418.852 456.739 418.999 456.739 419.146 456.739ZM460.919 451.283L419.44 455.265L377.079 412.498L416.793 404.387L460.919 451.283Z" fill="#080E31"/>
    <path d="M462.39 451.873L417.087 403.503L451.653 352.183L492.396 400.406L462.39 451.873Z" fill="#FCFCFC"/>
    <path d="M462.39 452.61C462.537 452.61 462.537 452.61 462.39 452.61C462.684 452.61 462.979 452.463 462.979 452.315L492.985 400.848C493.132 400.553 493.132 400.258 492.838 399.963L452.094 351.741C451.947 351.593 451.653 351.446 451.506 351.446C451.211 351.446 451.064 351.593 450.917 351.741L416.351 403.06C416.204 403.355 416.204 403.798 416.498 403.945L461.802 452.315C462.096 452.463 462.243 452.61 462.39 452.61ZM491.514 400.406L462.243 450.546L417.969 403.355L451.653 353.363L491.514 400.406Z" fill="#080E31"/>
    <path d="M479.305 338.173L543.142 319.445L500.633 389.198L436.355 402.323L479.305 338.173Z" fill="#FCFCFC"/>
    <path d="M436.355 403.06H436.503L500.633 389.935C500.78 389.935 501.075 389.788 501.075 389.64L543.583 320.034C543.73 319.74 543.73 319.445 543.583 319.15C543.436 318.855 543.142 318.855 542.848 318.855L479.011 337.436C478.864 337.436 478.717 337.583 478.57 337.731L435.62 402.028C435.473 402.323 435.473 402.618 435.62 402.913C435.914 402.913 436.208 403.06 436.355 403.06ZM500.192 388.461L438.121 401.143L479.894 338.616L541.671 320.624L500.192 388.461Z" fill="#080E31"/>
    <path d="M492.69 463.228L436.355 402.323L500.633 389.198L558.733 456.887L492.69 463.228Z" fill="#FCFCFC"/>
    <path d="M492.69 463.965L558.733 457.477C559.028 457.477 559.175 457.329 559.322 457.034C559.469 456.739 559.322 456.445 559.175 456.297L501.075 388.608C500.927 388.461 500.633 388.313 500.339 388.313L436.208 401.438C435.914 401.438 435.767 401.733 435.62 401.881C435.473 402.175 435.62 402.47 435.767 402.618L492.102 463.523C492.249 463.965 492.543 463.965 492.69 463.965ZM557.115 456.297L492.985 462.491L437.826 402.765L500.339 389.935L557.115 456.297Z" fill="#080E31"/>
    <path d="M558.733 456.887L500.633 389.198L543.142 319.592C543.142 319.592 577.561 364.423 594.77 386.986C582.709 410.139 558.733 456.887 558.733 456.887Z" fill="#FCFCFC"/>
    <path d="M558.733 457.624C559.028 457.624 559.322 457.477 559.322 457.182L595.359 387.133C595.506 386.839 595.506 386.544 595.359 386.396L543.73 319.002C543.583 318.855 543.289 318.707 543.142 318.707C542.848 318.707 542.701 318.855 542.554 319.002L500.045 388.608C499.898 388.903 499.898 389.198 500.045 389.493L558.145 457.182C558.292 457.477 558.439 457.624 558.733 457.624ZM593.888 386.986L558.586 455.56L501.516 389.051L543.289 320.772L593.888 386.986Z" fill="#080E31"/>
    <path d="M272.645 511.598L232.343 514.253L280.147 451.578L321.92 443.91L272.645 511.598Z" fill="#FCFCFC"/>
    <path d="M232.343 514.99C232.343 514.99 232.49 514.99 232.343 514.99L272.645 512.336C272.792 512.336 273.087 512.188 273.234 512.041L322.509 444.352C322.656 444.057 322.656 443.762 322.509 443.467C322.361 443.172 322.067 443.025 321.773 443.172L280.147 450.988C280 450.988 279.853 451.136 279.706 451.283L231.902 513.958C231.755 514.253 231.755 514.548 231.902 514.695C231.902 514.843 232.049 514.99 232.343 514.99ZM272.204 510.861L233.961 513.368L280.588 452.315L320.155 444.942L272.204 510.861Z" fill="#080E31"/>
    <path d="M290.59 563.213L232.343 514.253L272.645 511.598L333.393 565.13L290.59 563.213Z" fill="#FCFCFC"/>
    <path d="M333.393 565.867C333.687 565.867 333.981 565.72 334.129 565.425C334.276 565.13 334.129 564.835 333.981 564.54L273.234 511.008C273.087 510.861 272.94 510.861 272.645 510.861L232.343 513.515C232.049 513.515 231.755 513.663 231.755 513.958C231.607 514.253 231.755 514.548 232.049 514.695L290.296 563.655C290.443 563.803 290.59 563.803 290.737 563.803L333.393 565.867ZM272.351 512.336L331.334 564.245L290.884 562.476L234.255 514.843L272.351 512.336Z" fill="#080E31"/>
    <path d="M333.393 565.13L272.645 511.598L321.92 443.91L376.49 497.884L333.393 565.13Z" fill="#FCFCFC"/>
    <path d="M333.393 565.867C333.687 565.867 333.834 565.72 333.982 565.572L377.226 498.179C377.373 497.884 377.373 497.441 377.079 497.294L322.361 443.32C322.214 443.172 322.067 443.025 321.773 443.172C321.626 443.172 321.332 443.32 321.185 443.467L271.91 511.156C271.616 511.451 271.763 511.893 272.057 512.188L332.805 565.72C332.952 565.72 333.246 565.867 333.393 565.867ZM375.608 497.884L333.246 563.95L273.675 511.451L321.92 444.942L375.608 497.884Z" fill="#080E31"/>
    <path d="M347.661 432.112L405.761 421.052L348.102 505.995L291.62 509.829L347.661 432.112Z" fill="#FCFCFC"/>
    <path d="M291.62 510.566L348.249 506.732C348.543 506.732 348.69 506.584 348.837 506.437L406.496 421.347C406.643 421.052 406.643 420.757 406.496 420.462C406.349 420.167 406.055 420.019 405.761 420.167L347.661 431.227C347.514 431.227 347.367 431.375 347.22 431.522L291.179 509.239C291.032 509.534 291.032 509.829 291.179 509.976C291.032 510.419 291.326 510.566 291.62 510.566ZM347.808 505.405L293.238 509.091L348.249 432.849L404.29 422.084L347.808 505.405Z" fill="#080E31"/>
    <path d="M361.34 571.324L291.62 509.829L348.102 505.995L421.058 573.831L361.34 571.324Z" fill="#FCFCFC"/>
    <path d="M421.058 574.568C421.352 574.568 421.646 574.421 421.794 574.126C421.941 573.831 421.793 573.536 421.646 573.241L348.69 505.405C348.543 505.257 348.396 505.257 348.102 505.257L291.62 509.091C291.326 509.091 291.031 509.239 291.031 509.534C290.884 509.829 291.031 510.124 291.179 510.271L360.752 571.914C360.899 572.061 361.046 572.061 361.193 572.061L421.058 574.568ZM347.808 506.879L418.999 573.093L361.487 570.586L293.238 510.419L347.808 506.879Z" fill="#080E31"/>
    <path d="M421.058 573.831L348.102 505.994C348.102 505.994 395.906 435.651 405.761 420.904C416.057 431.67 470.774 489.33 470.774 489.33L421.058 573.831Z" fill="#FCFCFC"/>
    <path d="M421.058 574.567C421.058 574.567 421.205 574.567 421.058 574.567C421.352 574.567 421.646 574.42 421.646 574.272L471.363 489.772C471.51 489.477 471.51 489.182 471.215 488.887C471.215 488.887 416.498 431.226 406.202 420.461C406.055 420.314 405.761 420.166 405.614 420.166C405.32 420.166 405.173 420.314 405.025 420.461C395.023 435.208 347.367 505.551 347.367 505.551C347.219 505.846 347.219 506.289 347.514 506.436L420.47 574.272C420.764 574.567 420.911 574.567 421.058 574.567ZM469.892 489.477L420.911 572.798L349.132 505.994C353.397 499.652 395.612 437.568 405.908 422.231C416.94 433.733 465.185 484.463 469.892 489.477Z" fill="#080E31"/>
    <path d="M433.267 500.096L360.457 505.11L418.116 418.84L490.925 405.125L433.267 500.096Z" fill="#FCFCFC"/>
    <path d="M360.458 505.847L433.267 500.981C433.561 500.981 433.708 500.833 433.855 500.686L491.661 405.715C491.808 405.42 491.808 405.125 491.661 404.977C491.514 404.683 491.22 404.683 490.925 404.683L418.116 418.397C417.969 418.397 417.822 418.545 417.675 418.692L360.016 504.815C359.869 505.11 359.869 505.405 360.016 505.552C359.869 505.7 360.163 505.847 360.458 505.847ZM432.825 499.506L361.928 504.225L418.705 419.577L489.602 406.157L432.825 499.506Z" fill="#080E31"/>
    <path d="M434.002 574.421L360.457 505.11L433.266 500.096L509.9 577.813L434.002 574.421Z" fill="#FCFCFC"/>
    <path d="M509.9 578.55C510.194 578.55 510.488 578.402 510.635 578.107C510.782 577.813 510.635 577.518 510.488 577.223L433.708 499.653C433.561 499.506 433.414 499.358 433.119 499.506L360.31 504.372C360.016 504.372 359.722 504.52 359.722 504.815C359.575 505.11 359.722 505.405 359.869 505.552L433.561 575.011C433.708 575.158 433.855 575.158 434.002 575.158L509.9 578.55ZM432.972 500.981L508.135 577.075L434.443 573.831L362.223 505.7L432.972 500.981Z" fill="#080E31"/>
    <path d="M509.9 577.813C509.9 577.813 458.713 526.05 433.119 500.243C452.388 468.537 471.657 436.831 490.925 405.272C513.577 431.08 536.229 457.034 558.881 482.842C542.554 514.4 509.9 577.813 509.9 577.813Z" fill="#FCFCFC"/>
    <path d="M509.9 578.55C510.047 578.55 510.047 578.55 509.9 578.55C510.194 578.55 510.488 578.403 510.488 578.108L559.469 483.137C559.616 482.842 559.616 482.547 559.322 482.252L491.367 404.683C491.22 404.535 490.925 404.388 490.778 404.388C490.484 404.388 490.337 404.535 490.19 404.683L432.384 499.653C432.237 499.948 432.237 500.243 432.531 500.538L509.311 578.108C509.606 578.403 509.753 578.55 509.9 578.55ZM557.998 482.842L509.753 576.485L434.149 499.948L491.072 406.305L557.998 482.842Z" fill="#080E31"/>
    </g>
    </svg>
