<svg width="211" height="210" viewBox="0 0 211 210" fill="none" xmlns="http://www.w3.org/2000/svg">
    <path opacity="0.1" fill-rule="evenodd" clip-rule="evenodd" d="M46.2793 153.076C30.4526 137.713 26.7598 113.11 30.589 91.3885C34.0458 71.7799 49.3665 57.5758 65.2349 45.5493C79.4975 34.7399 96.0958 26.4045 113.896 28.2511C130.989 30.0244 142.842 43.5306 155.698 54.934C171.29 68.7644 194.269 79.5056 195.156 100.329C196.066 121.713 177.076 138.349 159.786 150.964C144.348 162.228 125.571 164.685 106.465 165.041C85.2047 165.436 61.5369 167.887 46.2793 153.076Z" fill="url(#paint0_linear)"/>
    <path d="M78.5905 121.782C77.6468 122.458 76.1183 121.937 75.1796 120.622C74.2409 119.307 74.2458 117.695 75.1894 117.019L85.9971 109.303C86.9407 108.63 88.4668 109.148 89.4055 110.463C90.3442 111.778 90.3417 113.39 89.3956 114.066L78.5905 121.782Z" fill="#E7A384"/>
    <path d="M74.3859 120.872C73.0712 121.811 71.2454 121.506 70.3042 120.192C69.3655 118.877 69.6702 117.049 70.9849 116.11L86.0315 105.366C87.3462 104.428 89.1745 104.732 90.1132 106.047C91.052 107.362 90.7472 109.19 89.4325 110.129L74.3859 120.872Z" fill="#F4B28D"/>
    <path d="M75.2287 116.228C73.914 117.167 72.0857 116.862 71.147 115.547C70.2082 114.233 70.513 112.404 71.8277 111.466L86.8743 100.719C88.189 99.7806 90.0148 100.085 90.9536 101.4C91.8923 102.715 91.5876 104.543 90.2729 105.482L75.2287 116.228Z" fill="#FDC098"/>
    <path d="M75.2705 109.873C73.86 110.881 71.9014 110.554 70.8963 109.143C69.8888 107.733 70.2156 105.774 71.6262 104.767L87.759 93.2464C89.1695 92.2389 91.1281 92.5657 92.1356 93.9763C93.1431 95.3868 92.8163 97.3454 91.4058 98.3529L75.2705 109.873Z" fill="#FAC7AB"/>
    <path d="M55.9456 118.961L69.1909 129.798L73.8821 124.065L60.6392 113.225L55.9456 118.961Z" fill="#FDC098"/>
    <path d="M51.4731 119.506L69.6579 134.388L72.1693 131.321L53.9846 116.439L51.4731 119.506Z" fill="white"/>
    <path d="M31.8607 139.559L53.5915 157.34L72.592 134.526L50.8613 116.744L31.8607 139.559Z" fill="#080E31"/>
    <path d="M61.6566 137.826C61.5927 137.772 61.5337 137.713 61.4747 137.649C60.7474 136.838 60.8162 135.592 61.6271 134.865C62.0031 134.526 62.4749 134.361 62.9443 134.361C63.3841 134.361 63.824 134.509 64.1828 134.796L61.6566 137.826Z" fill="white"/>
    <path d="M57.6288 142.66C57.5527 142.598 57.4814 142.529 57.4151 142.453C56.6877 141.642 56.7565 140.396 57.5674 139.669C57.9434 139.33 58.4152 139.165 58.8846 139.165C59.3392 139.165 59.7914 139.32 60.155 139.627L57.6288 142.66Z" fill="white"/>
    <path d="M59.0666 150.767H50.8785L57.629 142.66C57.9902 142.957 58.435 143.11 58.8847 143.11C59.3541 143.11 59.8235 142.943 60.2019 142.606C61.0128 141.878 61.0792 140.633 60.3543 139.822C60.2928 139.753 60.2265 139.689 60.1552 139.63L61.6567 137.826C62.0228 138.143 62.4824 138.303 62.9443 138.303C63.4137 138.303 63.8831 138.136 64.2591 137.799C65.07 137.072 65.1388 135.826 64.4114 135.015C64.3401 134.934 64.2615 134.863 64.1804 134.796L67.724 130.542L72.5945 134.528L59.0666 150.767Z" fill="#09144B"/>
    <path d="M62.9442 138.303C62.4822 138.303 62.0226 138.141 61.6565 137.826L64.1802 134.796C64.2613 134.862 64.34 134.936 64.4112 135.015C65.1386 135.826 65.0698 137.072 64.2589 137.799C63.8829 138.136 63.4111 138.303 62.9442 138.303Z" fill="#7C96A1"/>
    <path d="M58.8846 143.11C58.4374 143.11 57.9901 142.957 57.6289 142.66L60.1527 139.627C60.2215 139.686 60.2878 139.75 60.3517 139.819C61.0791 140.63 61.0103 141.876 60.1993 142.603C59.8234 142.942 59.354 143.11 58.8846 143.11Z" fill="#7C96A1"/>
    <path d="M80.5369 100.683C80.5369 100.683 77.1113 93.7847 70.636 95.8145C64.1632 97.8443 60.4329 99.5645 59.7055 112.839C58.8897 127.761 73.8822 125.979 77.1014 123.227C80.7507 120.108 83.4268 107.998 80.5369 100.683Z" fill="#FDC098"/>
    <path d="M78.0719 101.823C78.0719 101.823 66.677 103.11 69.4072 104.224C70.1149 104.514 71.0807 106.185 71.5967 108.089C72.1128 109.994 66.0627 115.872 69.7291 117.1C73.3955 118.329 79.2982 114.373 79.2269 109.465C79.1532 104.553 78.0719 101.823 78.0719 101.823Z" fill="#E19B7A"/>
    <path d="M136.216 64.0476C139.561 64.0427 142.274 66.7507 142.276 70.0928L142.316 99.7585C142.321 103.101 139.613 105.816 136.271 105.818L83.8125 105.887C80.4705 105.892 77.7551 103.184 77.7501 99.842L77.7108 70.1764C77.7059 66.8318 80.414 64.1189 83.7585 64.114L136.216 64.0476Z" fill="#151011"/>
    <path d="M130.815 67.0161C133.685 67.0112 136.013 69.3359 136.018 72.2037L136.049 97.6647C136.054 100.533 133.732 102.862 130.862 102.867L85.84 102.926C82.9697 102.931 80.6401 100.609 80.6377 97.7385L80.6057 72.2774C80.6008 69.4096 82.9255 67.08 85.7933 67.0751L130.815 67.0161Z" fill="white"/>
    <path d="M139.246 83.1836C140.21 83.1836 140.993 83.965 140.996 84.9308C140.998 85.8941 140.214 86.678 139.251 86.6805C138.285 86.6829 137.504 85.9015 137.501 84.9357C137.499 83.9675 138.28 83.1861 139.246 83.1836Z" fill="white"/>
    <path d="M140.057 112.058C141.866 113.051 143.977 112.684 144.768 111.24C145.56 109.795 144.736 107.819 142.928 106.826L137.89 104.061C136.081 103.071 133.973 103.437 133.179 104.882C132.388 106.327 133.211 108.303 135.02 109.296L140.057 112.058Z" fill="#FAC7AB"/>
    <path d="M165.894 110.691C166.246 111.706 165.388 112.925 163.975 113.417C162.562 113.908 161.132 113.483 160.781 112.471L156.148 98.053C155.795 97.0406 156.655 95.8193 158.065 95.3278C159.478 94.8363 160.908 95.2614 161.26 96.2739L165.894 110.691Z" fill="#D8947C"/>
    <path d="M162.759 112.095C163.25 113.508 162.503 115.048 161.09 115.54C159.677 116.031 158.134 115.284 157.645 113.871L152.027 97.7165C151.536 96.3059 152.283 94.7627 153.694 94.2712C155.107 93.7797 156.647 94.5268 157.141 95.9398L162.759 112.095Z" fill="#F4B28D"/>
    <path d="M156.984 111.94C157.475 113.35 156.728 114.896 155.318 115.385C153.905 115.877 152.361 115.13 151.872 113.719L146.252 97.5592C145.761 96.1462 146.505 94.6055 147.918 94.114C149.331 93.6225 150.872 94.3695 151.364 95.7825L156.984 111.94Z" fill="#FDC098"/>
    <path d="M148.624 104.863C149.105 106.391 148.26 108.023 146.732 108.505C145.203 108.989 142.915 105.553 142.434 104.025L137.566 89.1206C137.081 87.5921 137.932 85.9629 139.458 85.4788C140.986 84.9971 142.618 85.8449 143.1 87.371L148.624 104.863Z" fill="#FAC7AB"/>
    <path d="M166.72 117.584L151.624 122.364L149.25 114.753L164.975 112.07L166.72 117.584Z" fill="#FDC098"/>
    <path d="M142.117 100.933C140.949 101.304 142.031 103.722 141.657 104.914C140.763 107.757 139.249 110.352 140.792 112.443C143.532 116.152 146.54 118.189 151.381 118.675C153.15 118.852 155.018 118.715 156.773 118.444C170.269 116.356 165.98 111.185 163.046 101.923C162.1 98.9376 149.066 98.7754 142.117 100.933Z" fill="#FDC098"/>
    <path d="M170.539 119.676L149.813 126.24L148.705 122.743L169.43 116.179L170.539 119.676Z" fill="white"/>
    <path d="M183.546 154.984L158.778 162.825L147.245 125.352L172.011 117.511L183.546 154.984Z" fill="#080E31"/>
    <path d="M157.072 137.44L155.694 132.963C155.925 132.889 156.161 132.855 156.392 132.855C157.34 132.855 158.23 133.435 158.584 134.373C159.038 135.585 158.426 136.934 157.217 137.391C157.171 137.408 157.122 137.425 157.072 137.44Z" fill="white"/>
    <path d="M159.313 144.719L157.935 140.244C158.149 140.183 158.362 140.153 158.576 140.153C159.525 140.153 160.414 140.733 160.768 141.672C161.223 142.881 160.611 144.233 159.399 144.69C159.372 144.7 159.343 144.709 159.313 144.719Z" fill="white"/>
    <path d="M147.26 125.347L147.253 125.328L149.317 124.674L149.324 124.694L147.26 125.347Z" fill="#3D709A"/>
    <path d="M149.324 124.694L149.317 124.674L152.804 123.571L152.811 123.59L149.324 124.694Z" fill="#7C96A1"/>
    <path d="M161.176 150.767H155.084L147.26 125.347L149.324 124.694L152.811 123.59L155.696 132.963C155.654 132.975 155.613 132.99 155.571 133.007C154.359 133.462 153.747 134.813 154.202 136.022C154.556 136.961 155.448 137.541 156.394 137.541C156.62 137.541 156.849 137.509 157.072 137.44L157.935 140.247C157.873 140.264 157.812 140.283 157.751 140.308C156.541 140.763 155.927 142.114 156.384 143.326C156.738 144.264 157.63 144.844 158.576 144.844C158.822 144.844 159.068 144.805 159.311 144.724L161.176 150.767Z" fill="#09144B"/>
    <path d="M156.394 137.541C155.445 137.541 154.553 136.961 154.202 136.022C153.747 134.811 154.359 133.462 155.571 133.007C155.613 132.992 155.654 132.978 155.696 132.963L157.075 137.44C156.849 137.507 156.62 137.541 156.394 137.541Z" fill="#7C96A1"/>
    <path d="M158.579 144.839C157.63 144.839 156.738 144.26 156.387 143.321C155.93 142.109 156.544 140.76 157.753 140.303C157.815 140.281 157.876 140.261 157.937 140.242L159.316 144.717C159.07 144.8 158.822 144.839 158.579 144.839Z" fill="#7C96A1"/>
    <path d="M79.4752 101.473C81.4977 101.444 83.1171 99.9696 83.0901 98.1855C83.063 96.4014 81.4018 94.9786 79.3769 95.0105L73.7397 95.0965C71.7172 95.1285 70.0978 96.6005 70.1248 98.3845C70.1519 100.169 71.8155 101.591 73.838 101.559L79.4752 101.473Z" fill="#FAC7AB"/>
    <path d="M87.7222 78.3817H86.1642V70.3289H93.8288V71.8893H87.7222V78.3817Z" fill="#5C5456"/>
    <path d="M131.24 78.1729H129.682V71.8893H122.797V70.3289H131.24V78.1729Z" fill="#5C5456"/>
    <path d="M93.8288 99.4267H86.1642V91.3738H87.7222V97.8687H93.8288V99.4267Z" fill="#5C5456"/>
    <path d="M131.24 99.4268H122.797V97.8688H129.682V91.5828H131.24V99.4268Z" fill="#5C5456"/>
    <path d="M108.313 80.9152C106.342 80.9152 104.74 82.5174 104.74 84.4882C104.74 86.459 106.342 88.0613 108.313 88.0613C110.281 88.0613 111.886 86.459 111.886 84.4882C111.886 82.5198 110.281 80.9152 108.313 80.9152ZM108.313 89.6193C105.484 89.6193 103.182 87.3167 103.182 84.4882C103.182 81.6598 105.484 79.3572 108.313 79.3572C111.141 79.3572 113.444 81.6598 113.444 84.4882C113.444 87.3191 111.141 89.6193 108.313 89.6193Z" fill="#5C5456"/>
    <defs>
    <linearGradient id="paint0_linear" x1="48.586" y1="155.822" x2="162.414" y2="53.7244" gradientUnits="userSpaceOnUse">
    <stop stop-color="#363636" stop-opacity="0.54"/>
    <stop offset="1" stop-color="#080E31" stop-opacity="0"/>
    </linearGradient>
    </defs>
    </svg>
