<svg width="58" height="31" viewBox="0 0 58 31" fill="none" xmlns="http://www.w3.org/2000/svg">
    <path d="M0.0586654 20.4742H4.51724C4.60524 20.9729 4.6639 21.4129 4.78123 21.8822C5.22123 23.4662 6.18921 24.6395 7.68517 25.3141C9.70913 26.2235 11.6158 25.9888 13.3464 24.6102C14.5784 23.6422 15.253 22.3515 15.3117 20.7969C15.3117 20.5329 15.429 20.4742 15.6637 20.4742C16.9836 20.4742 18.2743 20.4742 19.5943 20.4742C19.8876 20.4742 19.9169 20.5916 19.9169 20.8262C19.8289 22.7915 19.2423 24.5808 18.0983 26.1941C17.0716 27.6314 15.781 28.7461 14.1677 29.4794C12.3197 30.33 10.3838 30.6234 8.33049 30.2714C5.69055 29.8314 3.60792 28.5407 1.99463 26.4288C0.909314 25.0208 0.234662 23.4368 0.0879982 21.6476C0.0586655 21.2956 0.0293327 20.9436 0 20.6209C0.0293327 20.5622 0.0586654 20.5329 0.0586654 20.4742Z" fill="#080E31"/>
    <path d="M10.0033 15.5766C6.98204 15.5766 4.51809 13.1127 4.51809 10.0914C4.51809 7.97944 5.6914 6.16081 7.45137 5.2515C7.95002 4.9875 8.47801 4.78218 9.03534 4.69418C9.006 4.69418 8.97667 4.72351 8.97667 4.72351C9.29933 4.66484 9.65132 4.63551 10.0033 4.63551C13.0246 4.63551 15.4885 7.09946 15.4885 10.1207C15.4592 13.1127 13.0246 15.5766 10.0033 15.5766ZM19.0085 5.75016C18.8325 5.36883 18.6271 5.01684 18.4218 4.60618H19.6245C19.6245 3.19821 19.6245 1.8489 19.6245 0.499597C19.6245 0.147604 19.5365 0.0302734 19.1845 0.0302734C16.3099 0.0596062 13.4646 0.0302734 10.59 0.0302734C9.03534 0.0302734 7.51003 0.235603 6.0434 0.85159C4.10744 1.70224 2.58214 3.02221 1.49682 4.81151C0.70484 6.07282 0.26485 7.45145 0.0888532 8.94742C-0.0578105 10.2381 0.0595204 11.4994 0.411513 12.7313C0.792839 14.0807 1.43816 15.3126 2.37681 16.3979C4.01944 18.3339 6.10206 19.4779 8.56601 19.8592C10.062 20.0939 11.5873 19.9472 13.0539 19.4779C14.9899 18.8326 16.5738 17.7472 17.8352 16.1633C19.0085 14.6673 19.7124 12.9953 19.9178 11.0887C20.0938 9.24075 19.8004 7.45145 19.0085 5.75016Z" fill="#080E31"/>
    <path d="M31.0633 7.47984C31.8553 7.74384 32.5593 8.00783 33.234 8.27183C33.8793 8.53582 34.4659 8.85848 34.9646 9.23981C35.4633 9.62113 35.8446 10.0611 36.1086 10.5891C36.3726 11.1171 36.5192 11.7624 36.5192 12.4957V12.5251C36.5192 14.3144 35.9032 15.7223 34.7006 16.749C33.498 17.7756 31.7967 18.2743 29.626 18.2743C28.2767 18.2743 26.9274 18.0396 25.6075 17.5703C24.2875 17.101 23.0555 16.4557 21.9115 15.5757L21.8822 15.5463L21.9115 15.517L24.3755 11.7331L24.4048 11.7624C25.1088 12.5251 25.9301 13.0824 26.8394 13.4931C27.7487 13.8744 28.7167 14.0797 29.7434 14.0797C31.1513 14.0797 31.8553 13.6397 31.8553 12.7304C31.8553 12.3197 31.6207 11.9971 31.1807 11.7624C30.7407 11.5571 30.1834 11.3518 29.5674 11.1758C29.45 11.1171 29.3327 11.0878 29.2154 11.0878C29.0981 11.0878 28.9807 11.0584 28.8634 10.9998C28.1594 10.8238 27.4261 10.6184 26.7221 10.3838C26.0181 10.1491 25.3728 9.8558 24.7861 9.47447C24.1995 9.09314 23.7302 8.59449 23.3782 7.9785C22.9968 7.39185 22.8208 6.59986 22.8208 5.66122V5.57322C22.8208 4.7519 22.9675 3.98925 23.2902 3.3146C23.6128 2.63995 24.0528 2.05329 24.6101 1.55463C25.1968 1.05598 25.8715 0.674653 26.6928 0.410658C27.5141 0.146664 28.3941 0 29.362 0C30.506 0 31.65 0.175996 32.8233 0.527989C33.9966 0.879982 35.0819 1.37864 36.0792 2.02396V2.08262L33.9086 6.01321L33.8793 5.98388C33.322 5.45589 32.6473 5.0159 31.826 4.69324C31.0047 4.37058 30.154 4.22391 29.2447 4.22391C29.0687 4.22391 28.8927 4.22391 28.6581 4.25325C28.4527 4.28258 28.2474 4.34124 28.0714 4.42924C27.8954 4.51724 27.7487 4.63457 27.6314 4.81057C27.5141 4.95723 27.4554 5.19189 27.4554 5.45589C27.4554 5.66122 27.5434 5.86654 27.7487 6.04254C27.9247 6.21854 28.1887 6.39453 28.4821 6.5412C28.7754 6.68786 29.1274 6.83452 29.4794 6.98119C29.8607 7.12785 30.2127 7.24518 30.5647 7.36251C30.6234 7.36251 30.7114 7.36251 30.7994 7.39185C30.9167 7.42118 30.9753 7.45051 31.0633 7.47984Z" fill="#080E31"/>
    <path d="M58 0.351993V18.069H53.3067V9.18114C53.3067 8.50649 53.1894 7.86117 52.9254 7.27452C52.6614 6.68786 52.3094 6.15987 51.8401 5.71988C51.3708 5.27989 50.8428 4.9279 50.2268 4.6639C49.6108 4.42924 48.9655 4.28258 48.3202 4.28258C47.6162 4.28258 46.9709 4.39991 46.3842 4.6639C45.7976 4.9279 45.2696 5.27989 44.8003 5.71988C44.3309 6.15987 43.9789 6.68786 43.7149 7.27452C43.451 7.8905 43.3336 8.53582 43.3336 9.21048C43.3336 9.88513 43.451 10.5011 43.7149 11.0878C43.9789 11.6744 44.3309 12.2024 44.8003 12.6424C45.2696 13.0824 45.7976 13.4344 46.3842 13.6984C46.9709 13.9624 47.6162 14.0797 48.3202 14.0797C49.0535 14.0797 49.6988 13.9624 50.2268 13.6984H50.2561V13.757L52.0454 16.8956L52.0161 16.925C50.8428 17.8343 49.4055 18.2743 47.6749 18.2743C46.4136 18.2743 45.2109 18.0396 44.0963 17.5703C42.9816 17.101 41.9843 16.4557 41.163 15.6343C40.3417 14.813 39.667 13.845 39.1684 12.7304C38.6697 11.6158 38.4351 10.4425 38.4351 9.18114C38.4351 7.91984 38.6697 6.71719 39.1684 5.60255C39.667 4.48791 40.3124 3.51993 41.163 2.69861C41.9843 1.87729 42.9816 1.20264 44.0963 0.733318C45.2109 0.263995 46.4136 0 47.6749 0C48.9068 0 49.9922 0.234662 50.9308 0.674653C51.8694 1.14398 52.6614 1.7893 53.3361 2.66928V0.351993H58Z" fill="#080E31"/>
    </svg>
