<svg width="177" height="148" viewBox="0 0 177 148" fill="none" xmlns="http://www.w3.org/2000/svg">
    <path fill-rule="evenodd" clip-rule="evenodd" d="M17.5453 67.1412L68.0407 37.9889C69.3334 37.2414 70.9515 37.3294 72.1563 38.2176C84.8197 47.5568 153.897 98.5183 153.897 98.5183L103.331 127.714L21.5818 67.4138C20.4386 66.5695 18.9172 66.4464 17.6509 67.0796C17.6157 67.0972 17.5805 67.1236 17.5453 67.1412Z" fill="#F9FAF9"/>
    <path fill-rule="evenodd" clip-rule="evenodd" d="M153.255 98.483L71.9453 38.4989C70.8548 37.6987 69.395 37.6107 68.2166 38.2879L19.6383 66.332C20.4034 66.3848 21.1509 66.6486 21.7929 67.1235L103.349 127.292L153.255 98.483ZM17.3695 66.8333C17.2024 66.93 17.1408 67.1411 17.2376 67.3082C17.3343 67.4753 17.5454 67.5368 17.7124 67.4401C17.7476 67.4225 17.7828 67.4049 17.818 67.3873C18.97 66.8069 20.3419 66.9212 21.3796 67.6863L103.12 127.987L103.331 127.706C103.331 128.075 103.331 128.075 103.331 128.013H103.507L154.073 98.8172C154.178 98.7556 154.24 98.6501 154.249 98.5358C154.257 98.4215 154.205 98.3072 154.108 98.2368C154.108 98.2368 85.0308 47.2754 72.3674 37.9361C71.0483 36.9688 69.2895 36.8632 67.8736 37.6811L17.3695 66.8333Z" fill="#090E32"/>
    <path fill-rule="evenodd" clip-rule="evenodd" d="M107.148 109.247C105.565 108.077 103.445 107.954 101.739 108.939C99.9982 109.942 97.8173 111.199 96.3751 112.035C96.0233 112.237 95.8035 112.597 95.7771 113.002C95.7507 113.406 95.9354 113.793 96.2608 114.031C97.4831 114.937 99.2595 116.256 100.728 117.346C102.302 118.516 104.43 118.639 106.136 117.654C107.878 116.651 110.059 115.394 111.501 114.558C111.853 114.356 112.072 113.996 112.099 113.591C112.125 113.187 111.941 112.8 111.615 112.562C110.384 111.648 108.608 110.329 107.148 109.247Z" fill="#3B426A"/>
    <path fill-rule="evenodd" clip-rule="evenodd" d="M106.937 109.529C108.405 110.619 110.182 111.938 111.404 112.844C111.633 113.011 111.756 113.284 111.747 113.574C111.729 113.855 111.571 114.11 111.325 114.26C109.874 115.095 107.702 116.353 105.961 117.355C104.378 118.27 102.408 118.155 100.939 117.065C99.4706 115.975 97.6942 114.655 96.4718 113.75C96.2432 113.583 96.1113 113.31 96.1289 113.02C96.1464 112.738 96.3047 112.475 96.551 112.334C97.9932 111.498 100.174 110.241 101.915 109.238C103.498 108.324 105.468 108.438 106.937 109.529ZM107.359 108.957C105.67 107.699 103.393 107.567 101.564 108.623C99.8224 109.625 97.6414 110.883 96.1992 111.718C95.7507 111.982 95.4605 112.448 95.4253 112.967C95.399 113.486 95.6276 113.987 96.0497 114.295C97.2721 115.201 99.0485 116.52 100.517 117.61C102.206 118.868 104.483 119 106.304 117.944C108.045 116.942 110.226 115.684 111.668 114.849C112.116 114.585 112.407 114.119 112.442 113.6C112.468 113.081 112.24 112.58 111.817 112.272C110.595 111.366 108.819 110.047 107.359 108.957Z" fill="#090E32"/>
    <path fill-rule="evenodd" clip-rule="evenodd" d="M94.3173 99.7669C92.7343 98.5973 90.615 98.4742 88.9089 99.4591C87.1677 100.462 84.9868 101.719 83.5446 102.555C83.1928 102.757 82.973 103.117 82.9466 103.522C82.9202 103.927 83.1049 104.313 83.4303 104.551C84.6526 105.457 86.429 106.776 87.8976 107.866C89.4718 109.036 91.5999 109.159 93.306 108.174C95.0472 107.172 97.2281 105.914 98.6703 105.079C99.0221 104.876 99.2419 104.516 99.2683 104.111C99.2947 103.707 99.11 103.32 98.7846 103.082C97.5623 102.168 95.7859 100.849 94.3173 99.7669Z" fill="#3B426A"/>
    <path fill-rule="evenodd" clip-rule="evenodd" d="M94.1062 100.049C95.5748 101.139 97.3512 102.458 98.5736 103.364C98.8022 103.531 98.9254 103.804 98.9166 104.094C98.899 104.375 98.7407 104.63 98.4944 104.78C97.0434 105.615 94.8713 106.873 93.1301 107.875C91.5472 108.79 89.5773 108.675 88.1087 107.585C86.6401 106.495 84.8637 105.175 83.6413 104.27C83.4127 104.103 83.2896 103.83 83.2984 103.54C83.3159 103.258 83.4742 103.003 83.7205 102.854C85.1627 102.018 87.3436 100.761 89.0848 99.7583C90.6678 98.8437 92.6376 98.9581 94.1062 100.049ZM94.5283 99.4857C92.8399 98.2282 90.5622 98.0962 88.7331 99.1515C86.9918 100.154 84.8109 101.412 83.3687 102.247C82.9202 102.511 82.63 102.977 82.5948 103.496C82.5684 104.015 82.7971 104.516 83.2192 104.832C84.4416 105.738 86.218 107.057 87.6866 108.148C89.375 109.405 91.6527 109.537 93.4731 108.482C95.2143 107.479 97.3952 106.222 98.8374 105.386C99.2859 105.123 99.5761 104.657 99.6113 104.138C99.6377 103.619 99.409 103.118 98.9869 102.801C97.7645 101.886 95.9881 100.567 94.5283 99.4857Z" fill="#090E32"/>
    <path fill-rule="evenodd" clip-rule="evenodd" d="M81.4604 90.3046C79.8775 89.135 77.7581 89.0119 76.0521 89.9968C74.3108 91.0082 72.1299 92.2569 70.6877 93.0924C70.3359 93.2946 70.1161 93.6552 70.0897 94.0597C70.0633 94.4642 70.248 94.8512 70.5734 95.0886C71.7958 95.9944 73.5721 97.3135 75.0408 98.4039C76.6149 99.5735 78.743 99.6967 80.4491 98.7117C82.1903 97.7092 84.3712 96.4517 85.8134 95.6162C86.1652 95.414 86.3851 95.0534 86.4114 94.6489C86.4378 94.2444 86.2531 93.8574 85.9278 93.62C84.6966 92.7142 82.9202 91.3951 81.4604 90.3046Z" fill="#3B426A"/>
    <path fill-rule="evenodd" clip-rule="evenodd" d="M81.2494 90.586C82.718 91.6765 84.4943 92.9956 85.7167 93.9013C85.9454 94.0684 86.0685 94.3411 86.0597 94.6313C86.0421 94.9127 85.8838 95.1765 85.6376 95.3172C84.1866 96.1526 82.0144 97.4102 80.2732 98.4127C78.6903 99.3273 76.7204 99.2129 75.2518 98.1225C73.7832 97.032 72.0068 95.7129 70.7844 94.8071C70.5558 94.64 70.4239 94.3674 70.4415 94.0772C70.4591 93.7958 70.6174 93.5408 70.8636 93.3913C72.3058 92.5559 74.4867 91.2983 76.228 90.2958C77.8109 89.39 79.7807 89.4955 81.2494 90.586ZM81.6627 90.0232C79.9742 88.7656 77.6966 88.6337 75.8762 89.689C74.135 90.6915 71.9541 91.9491 70.5118 92.7845C70.0633 93.0483 69.7731 93.5144 69.738 94.0333C69.7116 94.5521 69.9402 95.0534 70.3623 95.3699C71.5847 96.2757 73.3611 97.5948 74.8297 98.6853C76.5182 99.9429 78.7958 100.075 80.6162 99.0195C82.3574 98.0169 84.5383 96.7594 85.9805 95.924C86.429 95.6602 86.7192 95.1941 86.7544 94.6752C86.7808 94.1564 86.5522 93.6551 86.13 93.3473C84.9077 92.4327 83.1313 91.1136 81.6627 90.0232Z" fill="#090E32"/>
    <path fill-rule="evenodd" clip-rule="evenodd" d="M68.5947 80.8509C67.0118 79.6813 64.8924 79.5582 63.1864 80.5431C61.4452 81.5456 59.2643 82.8032 57.822 83.6386C57.4703 83.8409 57.2504 84.2014 57.224 84.606C57.1977 85.0105 57.3823 85.3974 57.7077 85.6349C58.9301 86.5406 60.7065 87.8598 62.1751 88.9502C63.7492 90.1198 65.8774 90.2429 67.5834 89.258C69.3246 88.2555 71.5056 86.9979 72.9478 86.1625C73.2995 85.9602 73.5194 85.5997 73.5458 85.1952C73.5722 84.7906 73.3875 84.4037 73.0621 84.1663C71.8309 83.2517 70.0545 81.9326 68.5947 80.8509Z" fill="#3B426A"/>
    <path fill-rule="evenodd" clip-rule="evenodd" d="M68.3837 81.1325C69.8523 82.223 71.6287 83.5421 72.8511 84.4479C73.0797 84.6149 73.2028 84.8876 73.194 85.1778C73.1764 85.4592 73.0181 85.7142 72.7719 85.8637C71.3209 86.6991 69.1488 87.9567 67.4075 88.9592C65.8246 89.8738 63.8548 89.7595 62.3862 88.669C60.9176 87.5785 59.1412 86.2594 57.9188 85.3536C57.6901 85.1866 57.567 84.9139 57.5758 84.6237C57.5934 84.3423 57.7517 84.0873 57.9979 83.9378C59.4489 83.1024 61.6211 81.8448 63.3623 80.8423C64.9452 79.9277 66.9151 80.042 68.3837 81.1325ZM68.8058 80.5609C67.1173 79.3033 64.8397 79.1714 63.0105 80.2267C61.2693 81.2292 59.0884 82.4868 57.6462 83.3222C57.1977 83.586 56.9075 84.0521 56.8723 84.571C56.8459 85.0898 57.0746 85.5911 57.4967 85.8989C58.719 86.8047 60.4954 88.1238 61.964 89.2142C63.6525 90.4718 65.9301 90.6037 67.7593 89.5484C69.5005 88.5459 71.6814 87.2883 73.1237 86.4529C73.5722 86.1891 73.8624 85.723 73.8975 85.2041C73.9327 84.6853 73.6953 84.184 73.2732 83.8762C72.042 82.9705 70.2656 81.6514 68.8058 80.5609Z" fill="#090E32"/>
    <path fill-rule="evenodd" clip-rule="evenodd" d="M121.763 100.805C120.189 99.6352 118.061 99.512 116.355 100.497C114.614 101.499 112.433 102.757 110.991 103.592C110.639 103.795 110.419 104.155 110.393 104.56C110.366 104.964 110.551 105.351 110.876 105.589C112.099 106.495 113.875 107.814 115.344 108.904C116.927 110.074 119.046 110.197 120.752 109.212C122.493 108.209 124.674 106.952 126.116 106.116C126.468 105.914 126.688 105.554 126.714 105.149C126.741 104.744 126.556 104.358 126.231 104.12C125.008 103.206 123.232 101.886 121.763 100.805Z" fill="#3B426A"/>
    <path fill-rule="evenodd" clip-rule="evenodd" d="M121.561 101.086C123.03 102.176 124.806 103.496 126.029 104.401C126.257 104.568 126.389 104.841 126.372 105.131C126.354 105.413 126.196 105.668 125.949 105.817C124.507 106.653 122.326 107.91 120.585 108.913C119.002 109.827 117.032 109.713 115.564 108.622C114.095 107.532 112.319 106.213 111.096 105.307C110.868 105.14 110.736 104.867 110.753 104.577C110.771 104.296 110.929 104.041 111.175 103.891C112.626 103.056 114.799 101.798 116.54 100.796C118.123 99.8812 120.093 99.9955 121.561 101.086ZM121.975 100.514C120.286 99.2568 118.008 99.1249 116.188 100.18C114.447 101.183 112.266 102.44 110.824 103.276C110.375 103.54 110.085 104.006 110.05 104.524C110.015 105.043 110.252 105.545 110.674 105.852C111.897 106.758 113.673 108.077 115.142 109.168C116.83 110.425 119.108 110.557 120.928 109.502C122.669 108.499 124.85 107.242 126.292 106.406C126.741 106.143 127.031 105.676 127.066 105.158C127.093 104.639 126.864 104.138 126.442 103.83C125.22 102.924 123.443 101.605 121.975 100.514Z" fill="#090E32"/>
    <path fill-rule="evenodd" clip-rule="evenodd" d="M108.942 91.3248C107.359 90.1552 105.239 90.0321 103.533 91.017C101.792 92.0195 99.6113 93.2771 98.169 94.1125C97.8173 94.3148 97.5974 94.6753 97.571 95.0798C97.5447 95.4844 97.7293 95.8713 98.0547 96.1087C99.2771 97.0145 101.053 98.3336 102.522 99.4241C104.096 100.594 106.224 100.717 107.93 99.7319C109.672 98.7294 111.853 97.4718 113.295 96.6364C113.647 96.4341 113.866 96.0736 113.893 95.669C113.919 95.2645 113.734 94.8776 113.409 94.6401C112.178 93.7256 110.402 92.4064 108.942 91.3248Z" fill="#3B426A"/>
    <path fill-rule="evenodd" clip-rule="evenodd" d="M108.731 91.6061C110.199 92.6966 111.976 94.0157 113.198 94.9215C113.427 95.0886 113.55 95.3612 113.541 95.6514C113.523 95.9328 113.365 96.1966 113.119 96.3373C111.668 97.1728 109.496 98.4303 107.755 99.4328C106.172 100.347 104.202 100.233 102.733 99.1426C101.265 98.0522 99.4881 96.7331 98.2658 95.8273C98.0371 95.6602 97.914 95.3876 97.9228 95.0974C97.9404 94.816 98.0987 94.5609 98.3449 94.4114C99.7959 93.576 101.968 92.3185 103.709 91.3159C105.292 90.4014 107.262 90.5157 108.731 91.6061ZM109.153 91.0433C107.464 89.7858 105.187 89.6539 103.358 90.7091C101.616 91.7117 99.4354 92.9692 97.9932 93.8046C97.5447 94.0685 97.2545 94.5345 97.2193 95.0534C97.1929 95.5722 97.4215 96.0735 97.8437 96.3901C99.066 97.2959 100.842 98.615 102.311 99.7054C103.999 100.963 106.277 101.095 108.106 100.04C109.848 99.0371 112.028 97.7795 113.471 96.9441C113.919 96.6803 114.209 96.2142 114.245 95.6954C114.271 95.1765 114.042 94.6752 113.62 94.3587C112.389 93.4441 110.613 92.125 109.153 91.0433Z" fill="#090E32"/>
    <path fill-rule="evenodd" clip-rule="evenodd" d="M96.0761 81.8623C94.4931 80.6926 92.3738 80.5695 90.6677 81.5545C88.9265 82.5658 86.7456 83.8145 85.3034 84.65C84.9516 84.8522 84.7318 85.2128 84.7054 85.6173C84.679 86.0218 84.8637 86.4088 85.189 86.6462C86.4114 87.552 88.1878 88.8711 89.6564 89.9616C91.2393 91.1312 93.3587 91.2543 95.0647 90.2694C96.806 89.2668 98.9869 88.0093 100.429 87.1739C100.781 86.9716 101.001 86.611 101.027 86.2065C101.053 85.802 100.869 85.415 100.543 85.1776C99.3211 84.2718 97.5447 82.9527 96.0761 81.8623Z" fill="#3B426A"/>
    <path fill-rule="evenodd" clip-rule="evenodd" d="M95.865 82.1439C97.3336 83.2343 99.11 84.5534 100.332 85.4592C100.561 85.6263 100.693 85.8989 100.675 86.1891C100.658 86.4705 100.499 86.7343 100.253 86.875C98.8022 87.7105 96.6301 88.968 94.8889 89.9705C93.3059 90.8851 91.3361 90.7708 89.8675 89.6803C88.3989 88.5899 86.6225 87.2708 85.4001 86.365C85.1715 86.1979 85.0395 85.9253 85.0571 85.6351C85.0747 85.3537 85.233 85.0987 85.4793 84.9492C86.9303 84.1137 89.1024 82.8562 90.8436 81.8537C92.4265 80.9479 94.4052 81.0534 95.865 82.1439ZM96.2871 81.581C94.5987 80.3235 92.321 80.1916 90.5006 81.2469C88.7594 82.2494 86.5785 83.5069 85.1363 84.3424C84.6878 84.6062 84.3976 85.0723 84.3624 85.5911C84.336 86.11 84.5647 86.6112 84.9868 86.9278C86.2092 87.8336 87.9856 89.1527 89.4542 90.2432C91.1426 91.5007 93.4203 91.6326 95.2406 90.5773C96.9818 89.5748 99.1628 88.3173 100.605 87.4818C101.053 87.218 101.344 86.7519 101.379 86.2331C101.405 85.7142 101.177 85.213 100.754 84.8964C99.5321 83.9906 97.7557 82.6715 96.2871 81.581Z" fill="#090E32"/>
    <path fill-rule="evenodd" clip-rule="evenodd" d="M83.2192 72.4088C81.6363 71.2392 79.5169 71.116 77.8109 72.101C76.0696 73.1035 73.8887 74.361 72.4465 75.1965C72.0947 75.3987 71.8749 75.7593 71.8485 76.1638C71.8221 76.5683 72.0068 76.9553 72.3322 77.1927C73.5545 78.0985 75.3309 79.4176 76.7995 80.5081C78.3737 81.6777 80.5018 81.8008 82.2079 80.8159C83.9491 79.8133 86.13 78.5558 87.5722 77.7204C87.924 77.5181 88.1438 77.1575 88.1702 76.753C88.1966 76.3485 88.0119 75.9616 87.6866 75.7241C86.4554 74.8095 84.679 73.4904 83.2192 72.4088Z" fill="#3B426A"/>
    <path fill-rule="evenodd" clip-rule="evenodd" d="M83.0081 72.6901C84.4767 73.7806 86.2531 75.0997 87.4755 76.0055C87.7042 76.1726 87.8273 76.4452 87.8185 76.7354C87.8009 77.0168 87.6426 77.2718 87.3964 77.4213C85.9453 78.2567 83.7732 79.5143 82.032 80.5168C80.4491 81.4314 78.4792 81.3171 77.0106 80.2266C75.542 79.1362 73.7656 77.817 72.5432 76.9113C72.3146 76.7442 72.1915 76.4716 72.2003 76.1814C72.2179 75.8999 72.3762 75.6449 72.6224 75.4954C74.0646 74.66 76.2455 73.4024 77.9867 72.3999C79.5697 71.4853 81.5395 71.5997 83.0081 72.6901ZM83.4215 72.1185C81.733 70.861 79.4554 70.7291 77.6262 71.7843C75.885 72.7869 73.7041 74.0444 72.2618 74.8798C71.8133 75.1437 71.5231 75.6097 71.488 76.1286C71.4616 76.6474 71.6902 77.1487 72.1123 77.4565C73.3347 78.3623 75.1111 79.6814 76.5797 80.7718C78.2682 82.0294 80.5458 82.1613 82.3662 81.106C84.1074 80.1035 86.2883 78.8459 87.7305 78.0105C88.179 77.7467 88.4692 77.2806 88.5044 76.7618C88.5308 76.2429 88.3021 75.7417 87.88 75.4339C86.6665 74.5281 84.8901 73.209 83.4215 72.1185Z" fill="#090E32"/>
    <path fill-rule="evenodd" clip-rule="evenodd" d="M136.388 92.3624C134.814 91.1928 132.686 91.0697 130.98 92.0546C129.238 93.0571 127.057 94.3146 125.615 95.1501C125.263 95.3523 125.044 95.7129 125.017 96.1174C124.991 96.5219 125.176 96.9089 125.501 97.1463C126.723 98.0521 128.5 99.3712 129.968 100.462C131.551 101.631 133.671 101.754 135.377 100.769C137.118 99.767 139.299 98.5094 140.741 97.674C141.093 97.4717 141.313 97.1112 141.339 96.7066C141.365 96.3021 141.181 95.9152 140.855 95.6777C139.633 94.7631 137.857 93.444 136.388 92.3624Z" fill="#3B426A"/>
    <path fill-rule="evenodd" clip-rule="evenodd" d="M136.177 92.644C137.646 93.7344 139.422 95.0536 140.644 95.9593C140.873 96.1264 140.996 96.399 140.987 96.6892C140.97 96.9706 140.811 97.2257 140.565 97.3752C139.114 98.2106 136.942 99.4682 135.201 100.471C133.618 101.385 131.648 101.271 130.179 100.18C128.711 99.09 126.934 97.7709 125.712 96.8651C125.483 96.698 125.351 96.4254 125.369 96.1352C125.387 95.8538 125.545 95.5988 125.791 95.4493C127.242 94.6138 129.414 93.3563 131.156 92.3538C132.738 91.4392 134.717 91.5535 136.177 92.644ZM136.599 92.0724C134.911 90.8148 132.633 90.6829 130.804 91.7382C129.063 92.7407 126.882 93.9983 125.439 94.8337C124.991 95.0975 124.701 95.5636 124.666 96.0825C124.639 96.6013 124.868 97.1026 125.29 97.4104C126.512 98.3161 128.289 99.6352 129.757 100.726C131.446 101.983 133.723 102.115 135.544 101.06C137.285 100.057 139.466 98.7998 140.908 97.9644C141.357 97.7006 141.647 97.2345 141.682 96.7156C141.717 96.1968 141.48 95.6955 141.058 95.3877C139.844 94.4819 138.068 93.1628 136.599 92.0724Z" fill="#090E32"/>
    <path fill-rule="evenodd" clip-rule="evenodd" d="M123.557 82.8824C121.983 81.7128 119.855 81.5897 118.149 82.5746C116.408 83.5771 114.227 84.8347 112.785 85.6701C112.433 85.8724 112.213 86.2329 112.187 86.6374C112.16 87.042 112.345 87.4289 112.67 87.6663C113.893 88.5721 115.669 89.8912 117.138 90.9817C118.721 92.1513 120.84 92.2744 122.546 91.2895C124.287 90.287 126.468 89.0294 127.91 88.194C128.262 87.9917 128.482 87.6312 128.508 87.2266C128.535 86.8221 128.35 86.4352 128.025 86.1977C126.802 85.2832 125.026 83.9641 123.557 82.8824Z" fill="#3B426A"/>
    <path fill-rule="evenodd" clip-rule="evenodd" d="M123.355 83.164C124.824 84.2545 126.6 85.5736 127.823 86.4793C128.051 86.6464 128.183 86.9191 128.166 87.2093C128.148 87.4907 127.99 87.7545 127.743 87.8952C126.292 88.7306 124.12 89.9882 122.379 90.9907C120.796 91.9053 118.826 91.7909 117.358 90.7005C115.889 89.61 114.113 88.2909 112.89 87.3851C112.662 87.218 112.53 86.9454 112.547 86.6552C112.565 86.3738 112.723 86.11 112.969 85.9693C114.42 85.1339 116.593 83.8763 118.334 82.8738C119.917 81.9592 121.887 82.0735 123.355 83.164ZM123.769 82.6012C122.08 81.3436 119.802 81.2117 117.973 82.267C116.232 83.2695 114.051 84.5271 112.609 85.3625C112.16 85.6263 111.87 86.0924 111.835 86.6113C111.809 87.1301 112.037 87.6314 112.459 87.948C113.682 88.8537 115.458 90.1728 116.927 91.2633C118.615 92.5208 120.893 92.6528 122.722 91.5975C124.463 90.595 126.644 89.3374 128.086 88.502C128.535 88.2382 128.825 87.7721 128.86 87.2532C128.887 86.7344 128.658 86.2331 128.236 85.9165C127.014 85.002 125.237 83.6828 123.769 82.6012Z" fill="#090E32"/>
    <path fill-rule="evenodd" clip-rule="evenodd" d="M110.701 73.4201C109.126 72.2505 106.998 72.1274 105.292 73.1123C103.551 74.1236 101.37 75.3724 99.9279 76.2078C99.5761 76.4101 99.3563 76.7706 99.3299 77.1752C99.3035 77.5797 99.4882 77.9666 99.8136 78.2041C101.036 79.1099 102.812 80.429 104.281 81.5194C105.864 82.689 107.983 82.8121 109.689 81.8272C111.43 80.8247 113.611 79.5671 115.054 78.7317C115.405 78.5295 115.625 78.1689 115.652 77.7644C115.678 77.3598 115.493 76.9729 115.168 76.7355C113.946 75.8297 112.169 74.5106 110.701 73.4201Z" fill="#3B426A"/>
    <path fill-rule="evenodd" clip-rule="evenodd" d="M110.49 73.7015C111.958 74.7919 113.735 76.111 114.957 77.0168C115.186 77.1839 115.317 77.4565 115.3 77.7467C115.282 78.0281 115.124 78.292 114.878 78.4327C113.427 79.2681 111.255 80.5256 109.513 81.5282C107.93 82.4427 105.961 82.3284 104.492 81.238C103.023 80.1475 101.247 78.8284 100.025 77.9226C99.796 77.7555 99.6729 77.4829 99.6817 77.1927C99.6992 76.9113 99.8575 76.6475 100.104 76.5068C101.546 75.6713 103.727 74.4138 105.468 73.4113C107.051 72.5055 109.03 72.611 110.49 73.7015ZM110.912 73.1387C109.223 71.8811 106.946 71.7492 105.116 72.8045C103.375 73.807 101.194 75.0645 99.752 75.9C99.3035 76.1638 99.0133 76.6299 98.9781 77.1487C98.9517 77.6676 99.1804 78.1688 99.6025 78.4854C100.825 79.3912 102.601 80.7103 104.07 81.8008C105.758 83.0583 108.036 83.1902 109.856 82.135C111.598 81.1324 113.778 79.8749 115.221 79.0395C115.669 78.7756 115.959 78.3095 115.995 77.7907C116.021 77.2719 115.792 76.7706 115.37 76.454C114.157 75.5482 112.38 74.2291 110.912 73.1387Z" fill="#090E32"/>
    <path fill-rule="evenodd" clip-rule="evenodd" d="M97.8348 63.9664C96.2519 62.7968 94.1326 62.6737 92.4265 63.6586C90.6853 64.6611 88.5044 65.9187 87.0622 66.7541C86.7104 66.9564 86.4905 67.3169 86.4642 67.7214C86.4378 68.126 86.6225 68.5129 86.9478 68.7503C88.1702 69.6561 89.9466 70.9752 91.4152 72.0657C92.9981 73.2353 95.1175 73.3584 96.8235 72.3735C98.5648 71.371 100.746 70.1134 102.188 69.278C102.54 69.0757 102.76 68.7152 102.786 68.3106C102.812 67.9061 102.628 67.5192 102.302 67.2817C101.08 66.3672 99.3035 65.048 97.8348 63.9664Z" fill="#3B426A"/>
    <path fill-rule="evenodd" clip-rule="evenodd" d="M97.6238 64.248C99.0924 65.3384 100.869 66.6576 102.091 67.5633C102.32 67.7304 102.443 68.003 102.434 68.2932C102.417 68.5747 102.258 68.8297 102.012 68.9792C100.561 69.8146 98.3889 71.0722 96.6477 72.0747C95.0647 72.9893 93.0949 72.8749 91.6263 71.7845C90.1577 70.694 88.3813 69.3749 87.1589 68.4691C86.9302 68.302 86.8071 68.0294 86.8159 67.7392C86.8335 67.4578 86.9918 67.2028 87.238 67.0533C88.6891 66.2179 90.8612 64.9603 92.6024 63.9578C94.1853 63.0432 96.164 63.1575 97.6238 64.248ZM98.0459 63.6764C96.3575 62.4188 94.0798 62.2869 92.2506 63.3422C90.5094 64.3447 88.3285 65.6023 86.8863 66.4377C86.4378 66.7015 86.1476 67.1676 86.1124 67.6865C86.086 68.2053 86.3147 68.7066 86.7368 69.0144C87.9592 69.9201 89.7355 71.2392 91.2041 72.3297C92.8926 73.5873 95.1703 73.7192 96.9994 72.6639C98.7406 71.6614 100.922 70.4038 102.364 69.5684C102.812 69.3046 103.102 68.8385 103.138 68.3196C103.164 67.8008 102.935 67.2995 102.513 66.9917C101.291 66.0859 99.5145 64.7668 98.0459 63.6764Z" fill="#090E32"/>
    <path fill-rule="evenodd" clip-rule="evenodd" d="M107.148 108.579C105.565 107.409 103.445 107.286 101.739 108.271C99.9982 109.274 97.8173 110.531 96.3751 111.367C96.0233 111.569 95.8035 111.929 95.7771 112.334C95.7507 112.738 95.9354 113.125 96.2608 113.363C97.4831 114.269 99.2595 115.588 100.728 116.678C102.302 117.848 104.43 117.971 106.136 116.986C107.878 115.983 110.059 114.726 111.501 113.89C111.853 113.688 112.072 113.328 112.099 112.923C112.125 112.519 111.941 112.132 111.615 111.894C110.384 110.988 108.608 109.669 107.148 108.579Z" fill="#3B426A"/>
    <path fill-rule="evenodd" clip-rule="evenodd" d="M106.937 108.86C108.405 109.951 110.182 111.27 111.404 112.176C111.633 112.343 111.756 112.615 111.747 112.905C111.729 113.187 111.571 113.451 111.325 113.591C109.874 114.427 107.702 115.684 105.961 116.687C104.378 117.601 102.408 117.487 100.939 116.397C99.4706 115.306 97.6942 113.987 96.4718 113.081C96.2432 112.914 96.1113 112.642 96.1289 112.351C96.1464 112.07 96.3047 111.806 96.551 111.665C97.9932 110.83 100.174 109.572 101.915 108.57C103.498 107.655 105.468 107.77 106.937 108.86ZM107.359 108.297C105.67 107.04 103.393 106.908 101.564 107.963C99.8224 108.966 97.6414 110.223 96.1992 111.059C95.7507 111.322 95.4605 111.789 95.4253 112.307C95.399 112.826 95.6276 113.328 96.0497 113.635C97.2721 114.541 99.0485 115.86 100.517 116.951C102.206 118.208 104.483 118.34 106.304 117.285C108.045 116.282 110.226 115.025 111.668 114.189C112.116 113.926 112.407 113.459 112.442 112.941C112.468 112.422 112.24 111.92 111.817 111.613C110.595 110.707 108.819 109.388 107.359 108.297Z" fill="#090E32"/>
    <path fill-rule="evenodd" clip-rule="evenodd" d="M94.3173 99.0988C92.7343 97.9292 90.615 97.8061 88.9089 98.791C87.1677 99.8023 84.9868 101.051 83.5446 101.887C83.1928 102.089 82.973 102.449 82.9466 102.854C82.9202 103.258 83.1049 103.645 83.4303 103.883C84.6526 104.789 86.429 106.108 87.8976 107.198C89.4718 108.368 91.5999 108.491 93.306 107.506C95.0472 106.503 97.2281 105.246 98.6703 104.41C99.0221 104.208 99.2419 103.848 99.2683 103.443C99.2947 103.039 99.11 102.652 98.7846 102.414C97.5623 101.508 95.7859 100.189 94.3173 99.0988Z" fill="#E5E9FE"/>
    <path fill-rule="evenodd" clip-rule="evenodd" d="M94.1062 99.3802C95.5748 100.471 97.3512 101.79 98.5736 102.696C98.8022 102.863 98.9254 103.135 98.9166 103.425C98.899 103.707 98.7407 103.962 98.4944 104.111C97.0434 104.947 94.8713 106.204 93.1301 107.207C91.5472 108.121 89.5773 108.007 88.1087 106.917C86.6401 105.826 84.8637 104.507 83.6413 103.601C83.4127 103.434 83.2896 103.162 83.2984 102.871C83.3159 102.59 83.4742 102.335 83.7205 102.185C85.1627 101.35 87.3436 100.093 89.0848 99.09C90.6678 98.1842 92.6376 98.2985 94.1062 99.3802ZM94.5283 98.8174C92.8399 97.5598 90.5622 97.4279 88.7331 98.4832C86.9918 99.4857 84.8109 100.743 83.3687 101.579C82.9202 101.843 82.63 102.309 82.5948 102.827C82.5684 103.346 82.7971 103.848 83.2192 104.164C84.4416 105.07 86.218 106.389 87.6866 107.479C89.375 108.737 91.6527 108.869 93.4731 107.814C95.2143 106.811 97.3952 105.554 98.8374 104.718C99.2859 104.454 99.5761 103.988 99.6113 103.469C99.6377 102.951 99.409 102.449 98.9869 102.133C97.7645 101.227 95.9881 99.9078 94.5283 98.8174Z" fill="#090E32"/>
    <path fill-rule="evenodd" clip-rule="evenodd" d="M81.4604 89.6451C79.8775 88.4755 77.7581 88.3524 76.0521 89.3373C74.3108 90.3398 72.1299 91.5974 70.6877 92.4328C70.3359 92.6351 70.1161 92.9956 70.0897 93.4001C70.0633 93.8047 70.248 94.1916 70.5734 94.429C71.7958 95.3348 73.5721 96.6539 75.0408 97.7444C76.6149 98.914 78.743 99.0371 80.4491 98.0522C82.1903 97.0497 84.3712 95.7921 85.8134 94.9567C86.1652 94.7544 86.3851 94.3939 86.4114 93.9893C86.4378 93.5848 86.2531 93.1979 85.9278 92.9604C84.6966 92.0459 82.9202 90.7268 81.4604 89.6451Z" fill="#E5E9FE"/>
    <path fill-rule="evenodd" clip-rule="evenodd" d="M81.2494 89.9265C82.718 91.0169 84.4943 92.336 85.7167 93.2418C85.9454 93.4089 86.0685 93.6815 86.0597 93.9717C86.0421 94.2531 85.8838 94.5081 85.6376 94.6576C84.1866 95.4931 82.0144 96.7506 80.2732 97.7531C78.6903 98.6677 76.7204 98.5534 75.2518 97.4629C73.7832 96.3725 72.0068 95.0534 70.7844 94.1476C70.5558 93.9805 70.4239 93.7079 70.4415 93.4177C70.4591 93.1363 70.6174 92.8725 70.8636 92.7317C72.3058 91.8963 74.4867 90.6388 76.228 89.6363C77.8109 88.7217 79.7807 88.836 81.2494 89.9265ZM81.6627 89.3548C79.9742 88.0973 77.6966 87.9654 75.8762 89.0207C74.135 90.0232 71.9541 91.2807 70.5118 92.1162C70.0633 92.38 69.7731 92.8461 69.738 93.3649C69.7116 93.8838 69.9402 94.385 70.3623 94.6928C71.5847 95.5986 73.3611 96.9177 74.8297 98.0082C76.5182 99.2657 78.7958 99.3976 80.6162 98.3423C82.3574 97.3398 84.5383 96.0823 85.9805 95.2468C86.429 94.983 86.7192 94.5169 86.7544 93.9981C86.7808 93.4792 86.5522 92.978 86.13 92.6702C84.9077 91.7644 83.1313 90.4453 81.6627 89.3548Z" fill="#090E32"/>
    <path fill-rule="evenodd" clip-rule="evenodd" d="M68.5947 80.1828C67.0118 79.0132 64.8924 78.8901 63.1864 79.875C61.4452 80.8775 59.2643 82.1351 57.822 82.9705C57.4703 83.1728 57.2504 83.5333 57.224 83.9379C57.1977 84.3424 57.3823 84.7293 57.7077 84.9668C58.9301 85.8726 60.7065 87.1917 62.1751 88.2821C63.7492 89.4517 65.8774 89.5748 67.5834 88.5899C69.3246 87.5874 71.5056 86.3298 72.9478 85.4944C73.2995 85.2921 73.5194 84.9316 73.5458 84.5271C73.5722 84.1225 73.3875 83.7356 73.0621 83.4982C71.8309 82.5924 70.0545 81.2733 68.5947 80.1828Z" fill="#3B426A"/>
    <path fill-rule="evenodd" clip-rule="evenodd" d="M68.3837 80.4642C69.8523 81.5546 71.6287 82.8737 72.8511 83.7795C73.0797 83.9466 73.2028 84.2192 73.194 84.5094C73.1764 84.7908 73.0181 85.0459 72.7719 85.1954C71.3209 86.0308 69.1488 87.2883 67.4075 88.2909C65.8246 89.2054 63.8548 89.0911 62.3862 88.0007C60.9176 86.9102 59.1412 85.5911 57.9188 84.6853C57.6901 84.5182 57.567 84.2456 57.5758 83.9554C57.5934 83.674 57.7517 83.419 57.9979 83.2695C59.4489 82.434 61.6211 81.1765 63.3623 80.174C64.9452 79.2682 66.9151 79.3737 68.3837 80.4642ZM68.8058 79.9013C67.1173 78.6438 64.8397 78.5119 63.0105 79.5672C61.2693 80.5697 59.0884 81.8272 57.6462 82.6627C57.1977 82.9265 56.9075 83.3926 56.8723 83.9114C56.8459 84.4303 57.0746 84.9315 57.4967 85.2481C58.719 86.1539 60.4954 87.473 61.964 88.5635C63.6525 89.821 65.9302 89.9529 67.7593 88.8976C69.5005 87.8951 71.6814 86.6376 73.1237 85.8021C73.5722 85.5383 73.8624 85.0722 73.8975 84.5534C73.9239 84.0345 73.6953 83.5333 73.2732 83.2255C72.042 82.3109 70.2656 80.9918 68.8058 79.9013Z" fill="#090E32"/>
    <path fill-rule="evenodd" clip-rule="evenodd" d="M121.763 100.136C120.189 98.9668 118.061 98.8437 116.355 99.8286C114.614 100.831 112.433 102.089 110.991 102.924C110.639 103.126 110.419 103.487 110.393 103.891C110.366 104.296 110.551 104.683 110.876 104.92C112.099 105.826 113.875 107.145 115.344 108.236C116.927 109.405 119.046 109.528 120.752 108.544C122.493 107.541 124.674 106.283 126.116 105.448C126.468 105.246 126.688 104.885 126.714 104.481C126.741 104.076 126.556 103.689 126.231 103.452C125.008 102.546 123.232 101.227 121.763 100.136Z" fill="#E5E9FE"/>
    <path fill-rule="evenodd" clip-rule="evenodd" d="M121.561 100.418C123.03 101.508 124.806 102.827 126.029 103.733C126.257 103.9 126.389 104.173 126.372 104.463C126.354 104.744 126.196 105.008 125.949 105.149C124.507 105.984 122.326 107.242 120.585 108.244C119.002 109.159 117.032 109.045 115.564 107.954C114.095 106.864 112.319 105.545 111.096 104.639C110.868 104.472 110.736 104.199 110.753 103.909C110.771 103.628 110.929 103.364 111.175 103.223C112.626 102.388 114.799 101.13 116.54 100.128C118.123 99.213 120.093 99.3273 121.561 100.418ZM121.975 99.855C120.286 98.5974 118.008 98.4655 116.188 99.5208C114.447 100.523 112.266 101.781 110.824 102.616C110.375 102.88 110.085 103.346 110.05 103.865C110.015 104.384 110.252 104.885 110.674 105.193C111.897 106.099 113.673 107.418 115.142 108.508C116.83 109.766 119.108 109.898 120.928 108.842C122.669 107.84 124.85 106.582 126.292 105.747C126.741 105.483 127.031 105.017 127.066 104.498C127.093 103.979 126.864 103.478 126.442 103.17C125.22 102.265 123.443 100.945 121.975 99.855Z" fill="#090E32"/>
    <path fill-rule="evenodd" clip-rule="evenodd" d="M108.942 90.6564C107.359 89.4868 105.239 89.3637 103.533 90.3487C101.792 91.36 99.6113 92.6087 98.169 93.4442C97.8173 93.6464 97.5974 94.007 97.571 94.4115C97.5447 94.816 97.7293 95.203 98.0547 95.4404C99.2771 96.3462 101.053 97.6653 102.522 98.7557C104.096 99.9254 106.224 100.048 107.93 99.0635C109.672 98.061 111.853 96.8035 113.295 95.968C113.647 95.7658 113.866 95.4052 113.893 95.0007C113.919 94.5962 113.734 94.2092 113.409 93.9718C112.178 93.066 110.402 91.7469 108.942 90.6564Z" fill="#E5E9FE"/>
    <path fill-rule="evenodd" clip-rule="evenodd" d="M108.731 90.9378C110.199 92.0283 111.976 93.3474 113.198 94.2532C113.427 94.4202 113.55 94.6929 113.541 94.9831C113.523 95.2645 113.365 95.5195 113.119 95.669C111.668 96.5044 109.496 97.762 107.755 98.7645C106.172 99.6791 104.202 99.5647 102.733 98.4743C101.265 97.3838 99.4881 96.0647 98.2658 95.1589C98.0371 94.9919 97.914 94.7192 97.9228 94.429C97.9404 94.1476 98.0987 93.8926 98.3449 93.7431C99.7959 92.9077 101.968 91.6501 103.709 90.6476C105.292 89.7418 107.262 89.8561 108.731 90.9378ZM109.153 90.375C107.464 89.1174 105.187 88.9855 103.358 90.0408C101.616 91.0433 99.4354 92.3009 97.9932 93.1363C97.5447 93.4001 97.2545 93.8662 97.2193 94.3851C97.1929 94.9039 97.4215 95.4052 97.8437 95.7218C99.066 96.6275 100.842 97.9466 102.311 99.0371C103.999 100.295 106.277 100.427 108.106 99.3713C109.848 98.3688 112.028 97.1112 113.471 96.2758C113.919 96.012 114.209 95.5459 114.245 95.027C114.271 94.5082 114.042 94.0069 113.62 93.6903C112.389 92.7845 110.613 91.4654 109.153 90.375Z" fill="#090E32"/>
    <path fill-rule="evenodd" clip-rule="evenodd" d="M96.0761 81.203C94.4931 80.0333 92.3738 79.9102 90.6677 80.8952C88.9265 81.9065 86.7456 83.1552 85.3034 83.9907C84.9516 84.1929 84.7318 84.5535 84.7054 84.958C84.679 85.3625 84.8637 85.7495 85.189 85.9869C86.4114 86.8927 88.1878 88.2118 89.6564 89.3023C91.2393 90.4719 93.3587 90.595 95.0647 89.6101C96.806 88.6075 98.9869 87.35 100.429 86.5146C100.781 86.3123 101.001 85.9517 101.027 85.5472C101.053 85.1427 100.869 84.7557 100.543 84.5183C99.3211 83.6037 97.5447 82.2846 96.0761 81.203Z" fill="#E5E9FE"/>
    <path fill-rule="evenodd" clip-rule="evenodd" d="M95.865 81.4843C97.3336 82.5748 99.11 83.8939 100.332 84.7997C100.561 84.9668 100.693 85.2394 100.675 85.5296C100.658 85.811 100.499 86.066 100.253 86.2155C98.8022 87.0509 96.6301 88.3085 94.8889 89.311C93.3059 90.2256 91.3361 90.1113 89.8675 89.0208C88.3989 87.9303 86.6225 86.6112 85.4001 85.7055C85.1715 85.5384 85.0395 85.2658 85.0571 84.9755C85.0747 84.6941 85.233 84.4303 85.4793 84.2896C86.9303 83.4542 89.1024 82.1966 90.8436 81.1941C92.4265 80.2795 94.4052 80.3939 95.865 81.4843ZM96.2871 80.9127C94.5987 79.6552 92.321 79.5232 90.5006 80.5785C88.7594 81.581 86.5785 82.8386 85.1363 83.674C84.6878 83.9379 84.3976 84.4039 84.3624 84.9228C84.336 85.4416 84.5647 85.9429 84.9868 86.2507C86.2092 87.1565 87.9856 88.4756 89.4542 89.566C91.1426 90.8236 93.4203 90.9555 95.2406 89.9002C96.9818 88.8977 99.1628 87.6401 100.605 86.8047C101.053 86.5409 101.344 86.0748 101.379 85.556C101.405 85.0371 101.177 84.5358 100.754 84.2193C99.5321 83.3223 97.7557 82.0032 96.2871 80.9127Z" fill="#090E32"/>
    <path fill-rule="evenodd" clip-rule="evenodd" d="M83.2192 71.7404C81.6363 70.5708 79.5169 70.4477 77.8109 71.4326C76.0696 72.4352 73.8887 73.6927 72.4465 74.5281C72.0947 74.7304 71.8749 75.091 71.8485 75.4955C71.8221 75.9 72.0068 76.2869 72.3322 76.5244C73.5545 77.4302 75.3309 78.7493 76.7995 79.8397C78.3737 81.0093 80.5018 81.1325 82.2079 80.1475C83.9491 79.145 86.13 77.8875 87.5722 77.052C87.924 76.8498 88.1438 76.4892 88.1702 76.0847C88.1966 75.6802 88.0119 75.2932 87.6866 75.0558C86.4554 74.15 84.679 72.8309 83.2192 71.7404Z" fill="#3B426A"/>
    <path fill-rule="evenodd" clip-rule="evenodd" d="M83.0081 72.0218C84.4767 73.1122 86.2531 74.4314 87.4755 75.3371C87.7042 75.5042 87.8273 75.7768 87.8185 76.067C87.8009 76.3485 87.6426 76.6035 87.3964 76.753C85.9453 77.5884 83.7732 78.846 82.032 79.8485C80.4491 80.7631 78.4792 80.6487 77.0106 79.5583C75.542 78.4678 73.7656 77.1487 72.5432 76.2429C72.3146 76.0758 72.1915 75.8032 72.2003 75.513C72.2179 75.2316 72.3762 74.9766 72.6224 74.8271C74.0646 73.9916 76.2455 72.7341 77.9867 71.7316C79.5697 70.8258 81.5395 70.9313 83.0081 72.0218ZM83.4215 71.459C81.733 70.2014 79.4554 70.0695 77.6262 71.1248C75.885 72.1273 73.7041 73.3849 72.2618 74.2203C71.8133 74.4841 71.5231 74.9502 71.488 75.469C71.4616 75.9879 71.6902 76.4892 72.1123 76.8057C73.3347 77.7115 75.1111 79.0306 76.5797 80.1211C78.2682 81.3786 80.5458 81.5105 82.3662 80.4553C84.1074 79.4527 86.2883 78.1952 87.7305 77.3598C88.179 77.0959 88.4692 76.6299 88.5044 76.111C88.5308 75.5922 88.3021 75.0909 87.88 74.7743C86.6665 73.8685 84.8901 72.5494 83.4215 71.459Z" fill="#090E32"/>
    <path fill-rule="evenodd" clip-rule="evenodd" d="M136.388 91.6939C134.814 90.5243 132.686 90.4012 130.98 91.3861C129.238 92.3886 127.057 93.6462 125.615 94.4816C125.263 94.6839 125.044 95.0444 125.017 95.449C124.991 95.8535 125.176 96.2404 125.501 96.4779C126.723 97.3837 128.5 98.7028 129.968 99.7932C131.551 100.963 133.671 101.086 135.377 100.101C137.118 99.0985 139.299 97.841 140.741 97.0055C141.093 96.8033 141.313 96.4427 141.339 96.0382C141.365 95.6336 141.181 95.2467 140.855 95.0093C139.633 94.1035 137.857 92.7844 136.388 91.6939Z" fill="#3B426A"/>
    <path fill-rule="evenodd" clip-rule="evenodd" d="M136.177 91.9754C137.646 93.0659 139.422 94.385 140.644 95.2908C140.873 95.4578 140.996 95.7305 140.987 96.0207C140.97 96.3021 140.811 96.5659 140.565 96.7066C139.114 97.542 136.942 98.7996 135.201 99.8021C133.618 100.717 131.648 100.602 130.179 99.5119C128.711 98.4214 126.934 97.1023 125.712 96.1965C125.483 96.0294 125.351 95.7568 125.369 95.4666C125.387 95.1852 125.545 94.9214 125.791 94.7807C127.242 93.9453 129.414 92.6877 131.156 91.6852C132.738 90.7706 134.717 90.8849 136.177 91.9754ZM136.599 91.4126C134.911 90.155 132.633 90.0231 130.804 91.0784C129.063 92.0809 126.882 93.3385 125.439 94.1739C124.991 94.4377 124.701 94.9038 124.666 95.4227C124.639 95.9415 124.868 96.4428 125.29 96.7506C126.512 97.6563 128.289 98.9754 129.757 100.066C131.446 101.323 133.723 101.455 135.544 100.4C137.285 99.3976 139.466 98.14 140.908 97.3046C141.357 97.0408 141.647 96.5747 141.682 96.0558C141.717 95.537 141.48 95.0357 141.058 94.7279C139.844 93.8221 138.068 92.503 136.599 91.4126Z" fill="#090E32"/>
    <path fill-rule="evenodd" clip-rule="evenodd" d="M123.557 82.2139C121.983 81.0443 119.855 80.9212 118.149 81.9061C116.408 82.9175 114.227 84.1662 112.785 85.0016C112.433 85.2039 112.213 85.5645 112.187 85.969C112.16 86.3735 112.345 86.7605 112.67 86.9979C113.893 87.9037 115.669 89.2228 117.138 90.3132C118.721 91.4829 120.84 91.606 122.546 90.621C124.287 89.6185 126.468 88.361 127.91 87.5255C128.262 87.3233 128.482 86.9627 128.508 86.5582C128.535 86.1537 128.35 85.7667 128.025 85.5293C126.802 84.6235 125.026 83.3044 123.557 82.2139Z" fill="#E5E9FE"/>
    <path fill-rule="evenodd" clip-rule="evenodd" d="M123.355 82.4957C124.824 83.5861 126.6 84.9052 127.823 85.811C128.051 85.9781 128.183 86.2507 128.166 86.5409C128.148 86.8223 127.99 87.0774 127.743 87.2269C126.292 88.0623 124.12 89.3198 122.379 90.3224C120.796 91.2369 118.826 91.1226 117.358 90.0322C115.889 88.9417 114.113 87.6226 112.89 86.7168C112.662 86.5497 112.53 86.2771 112.547 85.9869C112.565 85.7055 112.723 85.4505 112.969 85.301C114.42 84.4655 116.593 83.208 118.334 82.2055C119.917 81.2997 121.887 81.414 123.355 82.4957ZM123.769 81.9328C122.08 80.6753 119.802 80.5434 117.973 81.5987C116.232 82.6012 114.051 83.8587 112.609 84.6942C112.16 84.958 111.87 85.4241 111.835 85.9429C111.809 86.4618 112.037 86.963 112.459 87.2796C113.682 88.1854 115.458 89.5045 116.927 90.595C118.615 91.8525 120.893 91.9844 122.722 90.9291C124.463 89.9266 126.644 88.6691 128.086 87.8336C128.535 87.5698 128.825 87.1037 128.86 86.5849C128.887 86.066 128.658 85.5648 128.236 85.2482C127.014 84.3424 125.237 83.0233 123.769 81.9328Z" fill="#090E32"/>
    <path fill-rule="evenodd" clip-rule="evenodd" d="M110.701 72.7606C109.126 71.591 106.998 71.4678 105.292 72.4528C103.551 73.4641 101.37 74.7128 99.9279 75.5483C99.5761 75.7505 99.3563 76.1111 99.3299 76.5156C99.3035 76.9201 99.4882 77.3071 99.8136 77.5445C101.036 78.4503 102.812 79.7694 104.281 80.8599C105.864 82.0295 107.983 82.1526 109.689 81.1677C111.43 80.1651 113.611 78.9076 115.054 78.0722C115.405 77.8699 115.625 77.5093 115.652 77.1048C115.678 76.7003 115.493 76.3134 115.168 76.0759C113.946 75.1613 112.169 73.8422 110.701 72.7606Z" fill="#E5E9FE"/>
    <path fill-rule="evenodd" clip-rule="evenodd" d="M110.49 73.0419C111.958 74.1324 113.735 75.4515 114.957 76.3573C115.186 76.5244 115.317 76.797 115.3 77.0872C115.282 77.3686 115.124 77.6236 114.878 77.7731C113.427 78.6086 111.255 79.8661 109.513 80.8686C107.93 81.7832 105.961 81.6689 104.492 80.5784C103.023 79.488 101.247 78.1689 100.025 77.2631C99.796 77.096 99.6729 76.8234 99.6817 76.5332C99.6992 76.2518 99.8575 75.9879 100.104 75.8472C101.546 75.0118 103.727 73.7542 105.468 72.7517C107.051 71.8372 109.03 71.9515 110.49 73.0419ZM110.912 72.4703C109.223 71.2128 106.946 71.0809 105.116 72.1361C103.375 73.1387 101.194 74.3962 99.752 75.2316C99.3035 75.4955 99.0133 75.9616 98.9781 76.4804C98.9517 76.9993 99.1804 77.5005 99.6025 77.8083C100.825 78.7141 102.601 80.0332 104.07 81.1237C105.758 82.3812 108.036 82.5131 109.856 81.4578C111.598 80.4553 113.778 79.1978 115.221 78.3623C115.669 78.0985 115.959 77.6324 115.995 77.1136C116.021 76.5947 115.792 76.0935 115.37 75.7769C114.157 74.8799 112.38 73.5608 110.912 72.4703Z" fill="#090E32"/>
    <path fill-rule="evenodd" clip-rule="evenodd" d="M97.8348 63.2983C96.2519 62.1287 94.1326 62.0056 92.4265 62.9905C90.6853 63.993 88.5044 65.2506 87.0622 66.086C86.7104 66.2883 86.4905 66.6488 86.4642 67.0533C86.4378 67.4579 86.6225 67.8448 86.9478 68.0822C88.1702 68.988 89.9466 70.3071 91.4152 71.3976C92.9981 72.5672 95.1175 72.6903 96.8235 71.7054C98.5648 70.7029 100.746 69.4453 102.188 68.6099C102.54 68.4076 102.76 68.0471 102.786 67.6425C102.812 67.238 102.628 66.8511 102.302 66.6136C101.08 65.7079 99.3035 64.3887 97.8348 63.2983Z" fill="#3B426A"/>
    <path fill-rule="evenodd" clip-rule="evenodd" d="M97.6238 63.5796C99.0924 64.6701 100.869 65.9892 102.091 66.895C102.32 67.0621 102.443 67.3347 102.434 67.6249C102.417 67.9063 102.258 68.1613 102.012 68.3108C100.561 69.1463 98.3889 70.4038 96.6477 71.4063C95.0647 72.3209 93.0949 72.2066 91.6263 71.1161C90.1577 70.0257 88.3813 68.7066 87.1589 67.8008C86.9302 67.6337 86.8071 67.3611 86.8159 67.0709C86.8335 66.7895 86.9918 66.5344 87.238 66.3849C88.6891 65.5495 90.8612 64.292 92.6024 63.2894C94.1853 62.3837 96.164 62.4892 97.6238 63.5796ZM98.0459 63.0168C96.3575 61.7593 94.0798 61.6274 92.2506 62.6827C90.5094 63.6852 88.3285 64.9427 86.8863 65.7782C86.4378 66.042 86.1476 66.5081 86.1124 67.0269C86.086 67.5458 86.3147 68.047 86.7368 68.3636C87.9592 69.2694 89.7355 70.5885 91.2041 71.679C92.8926 72.9365 95.1703 73.0684 96.9994 72.0131C98.7406 71.0106 100.922 69.7531 102.364 68.9176C102.812 68.6538 103.102 68.1877 103.138 67.6689C103.164 67.15 102.935 66.6488 102.513 66.341C101.291 65.4264 99.5145 64.1073 98.0459 63.0168Z" fill="#090E32"/>
    <path fill-rule="evenodd" clip-rule="evenodd" d="M72.1123 45.0505C70.5294 43.8809 68.41 43.7578 66.704 44.7427C59.062 49.1485 38.0266 61.2931 32.0994 64.7139C31.7477 64.9162 31.5278 65.2768 31.5015 65.6813C31.4751 66.0858 31.6597 66.4728 31.9851 66.7102C35.5467 69.3572 44.7277 76.1638 49.2478 79.5231C50.8307 80.6927 52.9501 80.8158 54.6561 79.8309C62.2982 75.4163 83.3335 63.2717 89.2695 59.8508C89.6212 59.6486 89.8411 59.288 89.8675 58.8835C89.8938 58.479 89.7092 58.092 89.3838 57.8546C85.8134 55.2164 76.6324 48.401 72.1123 45.0505Z" fill="#3B426A"/>
    <path fill-rule="evenodd" clip-rule="evenodd" d="M71.9013 45.3321C76.4214 48.6914 85.5936 55.498 89.164 58.145C89.3926 58.3121 89.5157 58.5847 89.5069 58.8749C89.4893 59.1563 89.331 59.4113 89.0848 59.5608C83.1488 62.9905 62.1223 75.1263 54.4715 79.5409C52.8886 80.4555 50.9187 80.3411 49.4501 79.2507C44.93 75.8914 35.7578 69.076 32.1874 66.429C31.9588 66.2619 31.8356 65.9893 31.8444 65.6991C31.862 65.4177 32.0203 65.1538 32.2665 65.0131C38.2025 61.5835 59.2291 49.4477 66.8799 45.0331C68.4628 44.1273 70.4327 44.2416 71.9013 45.3321ZM72.3234 44.7605C70.6349 43.5029 68.3573 43.371 66.5281 44.4263C58.8773 48.8409 37.8508 60.9855 31.9148 64.4064C31.4663 64.6702 31.1761 65.1363 31.1409 65.6551C31.1145 66.174 31.3432 66.6752 31.7653 66.983C35.3269 69.63 44.499 76.4366 49.028 79.7959C50.7164 81.0535 52.9941 81.1854 54.8145 80.1301C62.4565 75.7155 83.4918 63.5709 89.4278 60.15C89.8763 59.8862 90.1665 59.4201 90.2016 58.9013C90.2368 58.3824 89.9994 57.8812 89.5773 57.5734C86.0157 54.9352 76.8435 48.1198 72.3234 44.7605Z" fill="#090E32"/>
    <path fill-rule="evenodd" clip-rule="evenodd" d="M10.7212 60.1762C16.1031 63.2805 20.4737 72.1097 20.4737 79.8748C20.4737 87.64 16.1031 91.4214 10.7212 88.3171C5.3392 85.2128 0.968567 76.3836 0.968567 68.6185C0.968567 60.8533 5.3392 57.0719 10.7212 60.1762Z" fill="#090E32"/>
    <path fill-rule="evenodd" clip-rule="evenodd" d="M10.5453 60.4839C15.8393 63.5442 20.122 72.2327 20.122 79.8747C20.122 84.3597 18.6622 87.4904 16.3318 88.6072C14.8104 89.3371 12.9373 89.1876 10.9058 88.0092C5.59424 84.9577 1.32034 76.2604 1.32034 68.6184C1.32034 64.1334 2.78015 61.0115 5.11057 59.8859C6.63194 59.156 8.51386 59.3055 10.5453 60.4839ZM10.897 59.8683C8.61939 58.558 6.51762 58.4261 4.81158 59.2527C2.29648 60.4575 0.616821 63.7817 0.616821 68.6184C0.616821 76.5066 5.0754 85.4677 10.5453 88.6248C12.8229 89.9351 14.9247 90.067 16.6308 89.2404C19.1459 88.0356 20.8255 84.7115 20.8255 79.8747C20.8167 71.9865 16.3581 63.0254 10.897 59.8683Z" fill="#090E32"/>
    <path fill-rule="evenodd" clip-rule="evenodd" d="M153.897 98.5182L103.322 127.714V141.785L153.897 112.589V98.5182Z" fill="#EFF1F9"/>
    <path fill-rule="evenodd" clip-rule="evenodd" d="M103.674 127.917V141.178L153.536 112.386V99.1251L103.674 127.917ZM154.249 98.5183C154.249 98.3952 154.178 98.272 154.073 98.2105C153.967 98.1489 153.826 98.1489 153.721 98.2105L103.155 127.407C103.05 127.468 102.979 127.583 102.979 127.714V141.785C102.979 141.908 103.05 142.022 103.155 142.093C103.261 142.154 103.401 142.154 103.507 142.093L154.073 112.897C154.178 112.835 154.249 112.721 154.249 112.589V98.5183Z" fill="#090E32"/>
    <path fill-rule="evenodd" clip-rule="evenodd" d="M149.324 108.192C149.324 107.972 149.21 107.77 149.016 107.664C148.823 107.559 148.594 107.559 148.409 107.664C142.913 110.839 114.297 127.354 108.81 130.529C108.247 130.854 107.895 131.461 107.895 132.112C107.895 132.331 108.01 132.534 108.203 132.639C108.388 132.745 108.625 132.745 108.81 132.639C114.306 129.465 142.922 112.949 148.409 109.775C148.981 109.449 149.324 108.843 149.324 108.192Z" fill="#090E32"/>
    <path fill-rule="evenodd" clip-rule="evenodd" d="M148.972 108.192C148.972 108.719 148.691 109.203 148.233 109.467C142.737 112.641 114.13 129.157 108.634 132.331C108.555 132.375 108.458 132.375 108.379 132.331C108.3 132.287 108.247 132.199 108.247 132.111C108.247 131.584 108.528 131.1 108.986 130.836C114.482 127.662 143.089 111.147 148.585 107.972C148.664 107.928 148.761 107.928 148.84 107.972C148.928 108.016 148.972 108.104 148.972 108.192ZM149.676 108.192C149.676 107.849 149.491 107.532 149.192 107.356C148.893 107.18 148.524 107.18 148.233 107.356C142.737 110.531 114.121 127.046 108.634 130.221C107.957 130.608 107.543 131.329 107.543 132.103C107.543 132.446 107.728 132.762 108.027 132.938C108.326 133.114 108.695 133.114 108.986 132.938C114.482 129.763 143.098 113.248 148.585 110.074C149.262 109.687 149.676 108.974 149.676 108.192Z" fill="#090E32"/>
    <path fill-rule="evenodd" clip-rule="evenodd" d="M176.031 128.383C175.864 128.655 175.636 128.884 175.346 129.051C169.04 132.692 152.974 141.97 145.173 146.472C142.465 148.038 139.132 148.038 136.423 146.472C127.928 141.565 110.032 131.232 110.032 131.232V130.529L147.196 109.071L172.452 123.652C172.452 123.652 174.026 124.76 175.495 125.797C175.715 125.956 175.9 126.703 176.031 126.932V128.383Z" fill="#E5E9FE"/>
    <path fill-rule="evenodd" clip-rule="evenodd" d="M175.275 126.079L172.25 123.951L147.187 109.476L110.375 130.731V131.03L136.59 146.164C139.184 147.668 142.385 147.668 144.988 146.164C152.789 141.662 168.855 132.384 175.161 128.743C175.363 128.62 175.539 128.462 175.671 128.277V127.011C175.592 126.844 175.504 126.571 175.407 126.334C175.372 126.228 175.284 126.096 175.275 126.079ZM175.521 129.35C175.856 129.157 176.383 128.778 176.383 127.741C176.383 126.624 176.383 126.923 176.383 126.923C176.383 126.861 176.366 126.8 176.33 126.738C176.242 126.589 176.128 126.184 175.996 125.912C175.908 125.718 175.794 125.577 175.697 125.507C174.229 124.469 172.655 123.361 172.655 123.361C172.646 123.353 172.637 123.353 172.628 123.344L147.372 108.763C147.266 108.702 147.125 108.702 147.02 108.763L109.856 130.221C109.751 130.282 109.68 130.397 109.68 130.528V131.232C109.68 131.355 109.751 131.469 109.856 131.54C109.856 131.54 127.752 141.873 136.247 146.78C139.061 148.407 142.535 148.407 145.349 146.78C153.141 142.277 169.216 132.991 175.521 129.35Z" fill="#090E32"/>
    <path fill-rule="evenodd" clip-rule="evenodd" d="M147.196 109.071L110.032 130.529C110.032 130.529 127.928 140.862 136.423 145.769C139.132 147.334 142.465 147.334 145.173 145.769C152.859 141.328 168.583 132.252 175.064 128.515C175.662 128.172 176.031 127.53 176.031 126.844C176.031 126.158 175.662 125.516 175.064 125.173C167.405 120.741 147.196 109.071 147.196 109.071Z" fill="#E5E9FE"/>
    <path fill-rule="evenodd" clip-rule="evenodd" d="M147.196 109.476L110.736 130.528L136.599 145.461C139.193 146.965 142.394 146.965 144.997 145.461C152.683 141.029 168.398 131.944 174.888 128.207C175.381 127.925 175.68 127.407 175.68 126.835C175.68 126.272 175.381 125.753 174.888 125.463L147.196 109.476ZM147.372 108.763C147.266 108.702 147.125 108.702 147.02 108.763L109.856 130.221C109.751 130.282 109.68 130.397 109.68 130.528C109.68 130.652 109.751 130.775 109.856 130.836C109.856 130.836 127.752 141.169 136.247 146.076C139.061 147.703 142.535 147.703 145.349 146.076C153.035 141.635 168.75 132.56 175.24 128.814C175.943 128.409 176.383 127.653 176.383 126.835C176.383 126.017 175.952 125.27 175.24 124.856C167.58 120.433 147.372 108.763 147.372 108.763Z" fill="#090E32"/>
    <path fill-rule="evenodd" clip-rule="evenodd" d="M102.971 127.89L21.3708 67.6951C20.3331 66.9301 18.9612 66.8157 17.8092 67.3961C16.6572 67.9766 15.9361 69.155 15.9361 70.4389C15.9361 75.812 15.9361 82.8649 15.9361 87.1915C15.9361 89.5044 17.1672 91.6413 19.1723 92.8021L102.971 141.178V127.89ZM103.674 127.714C103.674 127.6 103.621 127.495 103.533 127.433C103.533 127.433 41.5707 81.7216 21.7929 67.1323C20.5441 66.209 18.8821 66.0683 17.5014 66.7718C16.1207 67.4753 15.2413 68.8911 15.2413 70.4389C15.2413 75.812 15.2413 82.8649 15.2413 87.1915C15.2413 89.7594 16.6132 92.125 18.8293 93.4089C35.0015 102.739 103.146 142.093 103.146 142.093C103.252 142.154 103.393 142.154 103.498 142.093C103.604 142.031 103.674 141.917 103.674 141.785V127.714Z" fill="#090E32"/>
    <path fill-rule="evenodd" clip-rule="evenodd" d="M4.63568 59.7453L55.131 30.5931C56.8107 29.5818 58.9564 29.6345 61.2869 30.98C63.7492 32.3958 65.9917 35.0165 67.7065 38.1735L17.4222 67.2114L17.4662 67.2466L17.1672 67.4225C15.4523 64.239 13.1923 61.6096 10.7212 60.185C8.41712 58.8483 6.29775 58.7779 4.63568 59.7453Z" fill="#262B55"/>
    <path fill-rule="evenodd" clip-rule="evenodd" d="M67.2316 38.0415C65.5696 35.0779 63.4414 32.6244 61.111 31.2789C58.9125 30.0126 56.8899 29.9334 55.3069 30.8832C55.2981 30.892 55.2893 30.892 55.2805 30.9008L7.08044 58.7339C8.25884 58.7251 9.55157 59.0945 10.8971 59.8683C13.3242 61.2666 15.5491 63.7993 17.2815 66.886L67.2316 38.0415ZM54.964 30.2764C56.7404 29.2211 59.0004 29.2563 61.454 30.6721C63.9603 32.1231 66.2643 34.7789 68.0143 38.0064C68.1023 38.1734 68.0495 38.3845 67.8824 38.4812L17.7652 67.4136C17.7388 67.4664 17.6948 67.5103 17.6333 67.5455L17.3343 67.7214C17.22 67.783 17.0881 67.783 16.9737 67.7126C16.921 67.6774 16.877 67.6335 16.8506 67.5807C15.1622 64.4588 12.9637 61.8734 10.5365 60.4751C8.37317 59.2264 6.37692 59.1296 4.80279 60.0442C4.68847 60.1058 4.55656 60.1058 4.44223 60.0354C4.3367 59.9739 4.27515 59.8507 4.27515 59.7276C4.27515 59.6045 4.3455 59.4902 4.45103 59.4286L54.9464 30.2764H54.964Z" fill="#090E32"/>
    <path fill-rule="evenodd" clip-rule="evenodd" d="M103.322 127.714C103.322 127.714 41.3596 82.0029 21.5818 67.4136C20.4386 66.5693 18.9172 66.4462 17.6509 67.0794C16.3845 67.7214 15.5843 69.0141 15.5843 70.4387C15.5843 75.8119 15.5843 82.8647 15.5843 87.1914C15.5843 89.6273 16.8858 91.8874 18.9964 93.1009C35.1686 102.44 103.322 141.785 103.322 141.785V127.714Z" fill="#E5E9FE"/>
    <path fill-rule="evenodd" clip-rule="evenodd" d="M102.971 127.89L21.3708 67.6951C20.3331 66.9301 18.9612 66.8157 17.8092 67.3961C16.6572 67.9766 15.9361 69.155 15.9361 70.4389C15.9361 75.812 15.9361 82.8649 15.9361 87.1915C15.9361 89.5044 17.1672 91.6413 19.1723 92.8021L102.971 141.178V127.89ZM103.674 127.714C103.674 127.6 103.621 127.495 103.533 127.433C103.533 127.433 41.5707 81.7216 21.7929 67.1323C20.5441 66.209 18.8821 66.0683 17.5014 66.7718C16.1207 67.4753 15.2413 68.8911 15.2413 70.4389C15.2413 75.812 15.2413 82.8649 15.2413 87.1915C15.2413 89.7594 16.6132 92.125 18.8293 93.4089C35.0015 102.739 103.146 142.093 103.146 142.093C103.252 142.154 103.393 142.154 103.498 142.093C103.604 142.031 103.674 141.917 103.674 141.785V127.714Z" fill="#090E32"/>
    <path fill-rule="evenodd" clip-rule="evenodd" d="M90.3863 123.915C90.3863 123.915 52.616 96.0472 40.0317 86.7519C39.2666 86.189 38.2465 86.1011 37.3935 86.532C36.5405 86.9629 36.004 87.8335 36.004 88.7921C36.004 93.409 36.004 100.04 36.004 103.346C36.004 104.604 36.6812 105.773 37.7716 106.407C46.5041 111.446 84.8813 133.606 89.8587 136.482C89.9642 136.544 90.1049 136.544 90.2105 136.482C90.3248 136.421 90.3863 136.306 90.3863 136.174C90.3863 133.598 90.3863 123.915 90.3863 123.915Z" fill="#3B426A"/>
    <path fill-rule="evenodd" clip-rule="evenodd" d="M90.0346 124.1L39.8207 87.0421C39.1611 86.5584 38.2817 86.4793 37.5518 86.8486C36.8219 87.218 36.3558 87.9743 36.3558 88.7921C36.3558 93.409 36.3558 100.04 36.3558 103.346C36.3558 104.481 36.9626 105.527 37.9475 106.099C46.68 111.138 85.0572 133.299 90.0346 136.174V124.1ZM90.7381 123.916C90.7381 123.801 90.6854 123.696 90.5974 123.634C90.5974 123.634 52.827 95.757 40.2428 86.4705C39.3722 85.8285 38.2026 85.723 37.2352 86.2155C36.2679 86.7079 35.6523 87.7017 35.6523 88.7833C35.6523 93.4002 35.6523 100.031 35.6523 103.337C35.6523 104.727 36.391 106.002 37.5958 106.697C46.3282 111.736 84.7054 133.897 89.6828 136.772C89.9027 136.895 90.1753 136.895 90.3864 136.772C90.6062 136.649 90.7381 136.412 90.7381 136.157C90.7381 133.598 90.7381 123.916 90.7381 123.916Z" fill="#090E32"/>
    <path fill-rule="evenodd" clip-rule="evenodd" d="M90.2017 124.021C90.2017 124.021 52.4313 96.1526 39.847 86.8573C39.0819 86.2945 38.0618 86.2066 37.2088 86.6375C36.3558 87.0684 35.8193 87.939 35.8193 88.8975C35.8193 93.5144 35.8193 100.145 35.8193 103.452C35.8193 104.709 36.4965 105.879 37.5869 106.512C46.3194 111.56 84.6966 133.712 89.674 136.588C89.7795 136.649 89.9202 136.649 90.0258 136.588C90.1313 136.526 90.2017 136.403 90.2017 136.28C90.2017 133.703 90.2017 124.021 90.2017 124.021Z" fill="#3B426A"/>
    <path fill-rule="evenodd" clip-rule="evenodd" d="M89.8499 124.206L39.636 87.1476C38.9764 86.6552 38.097 86.5848 37.3671 86.9542C36.6372 87.3235 36.1711 88.071 36.1711 88.8977C36.1711 93.5145 36.1711 100.145 36.1711 103.452C36.1711 104.586 36.7779 105.633 37.7628 106.204C46.4953 111.243 84.8725 133.404 89.8499 136.28V124.206ZM90.5534 124.021C90.5534 123.907 90.5007 123.801 90.4127 123.74C90.4127 123.74 52.6423 95.8713 40.0581 86.576C39.1875 85.9341 38.0179 85.8373 37.0505 86.321C36.0832 86.8135 35.4676 87.8072 35.4676 88.8889C35.4676 93.5057 35.4676 100.136 35.4676 103.443C35.4676 104.832 36.2063 106.108 37.4111 106.802C46.1435 111.841 84.5207 134.002 89.4981 136.878C89.718 137.001 89.9818 137.001 90.2017 136.878C90.4215 136.755 90.5534 136.517 90.5534 136.262C90.5534 133.703 90.5534 124.021 90.5534 124.021Z" fill="#090E32"/>
    <path fill-rule="evenodd" clip-rule="evenodd" d="M90.0785 124.091C90.0785 124.091 52.3082 96.2232 39.7239 86.9279C38.9588 86.3651 37.9387 86.2771 37.0857 86.708C36.2327 87.1389 35.6962 88.0096 35.6962 88.9681C35.6962 93.585 35.6962 100.216 35.6962 103.522C35.6962 104.78 36.3734 105.949 37.4638 106.583C46.1963 111.622 84.5735 133.783 89.5509 136.658C89.6564 136.72 89.7971 136.72 89.9027 136.658C90.0082 136.597 90.0785 136.482 90.0785 136.35C90.0785 133.774 90.0785 124.091 90.0785 124.091Z" fill="#232A57"/>
    <path fill-rule="evenodd" clip-rule="evenodd" d="M89.7268 124.276L39.5129 87.2181C38.8533 86.7345 37.9739 86.6553 37.244 87.0247C36.5141 87.394 36.048 88.1503 36.048 88.9682C36.048 93.585 36.048 100.216 36.048 103.522C36.048 104.657 36.6548 105.703 37.6397 106.275C46.3722 111.314 84.7494 133.475 89.7268 136.35V124.276ZM90.4303 124.092C90.4303 123.977 90.3776 123.872 90.2896 123.81C90.2896 123.81 52.5192 95.9418 39.935 86.6465C39.0644 86.0046 37.8948 85.899 36.9274 86.3915C35.9601 86.884 35.3445 87.8777 35.3445 88.9594C35.3445 93.5762 35.3445 100.207 35.3445 103.513C35.3445 104.903 36.0832 106.178 37.288 106.873C46.0204 111.912 84.3976 134.073 89.375 136.948C89.5949 137.072 89.8587 137.072 90.0786 136.948C90.2984 136.825 90.4303 136.588 90.4303 136.333C90.4303 133.774 90.4303 124.092 90.4303 124.092Z" fill="#090E32"/>
    <path fill-rule="evenodd" clip-rule="evenodd" d="M19.8582 41.1812L19.8406 41.1636C19.7175 39.5631 18.8117 38.1121 17.4047 37.303C17.3959 37.2942 17.3871 37.2942 17.3783 37.2854C16.8858 37.004 16.2702 37.004 15.7778 37.2854L55.6763 14.2538L55.6851 14.245C56.1776 13.9636 56.7844 13.9724 57.268 14.2538C57.2768 14.2626 57.2856 14.2626 57.2944 14.2714C58.7015 15.0805 59.6072 16.5315 59.7304 18.132L59.7479 18.1496V39.9588L19.8582 62.9904V41.1812Z" fill="#F9FAF9"/>
    <path fill-rule="evenodd" clip-rule="evenodd" d="M59.3961 18.2374C59.3873 18.211 59.3873 18.1846 59.3785 18.167C59.2642 16.6808 58.42 15.3353 57.1185 14.579C57.1097 14.5702 57.1009 14.5702 57.0921 14.5614C56.7139 14.3416 56.2391 14.3416 55.8521 14.5527L55.8433 14.5614L17.2551 36.8455C17.3606 36.8807 17.4574 36.9335 17.5541 36.9862C17.5629 36.995 17.5717 36.995 17.5805 37.0038C19.0667 37.8568 20.0252 39.3782 20.1835 41.0579C20.2011 41.0931 20.2099 41.137 20.2099 41.181V62.3834L59.4049 39.7564V37.4963H59.7567H59.4049C59.4049 37.4963 59.4049 24.4196 59.4049 18.5188H59.7567H59.4049V18.2374H59.3961ZM15.6018 36.9862L55.5004 13.9547L55.518 13.9459C56.116 13.6029 56.8546 13.6117 57.4526 13.9547C57.4614 13.9635 57.4702 13.9635 57.479 13.9722C58.9828 14.8429 59.9589 16.3994 60.0909 18.1142L59.9941 17.9032L59.7567 18.1494H60.1084V18.5188H59.7567H60.1084V39.9586C60.1084 40.0817 60.0381 40.1961 59.9326 40.2664L20.034 63.298C19.9285 63.3595 19.7878 63.3595 19.6823 63.298C19.5767 63.2364 19.5064 63.1221 19.5064 62.9902V41.2689C19.4976 41.2425 19.4976 41.2162 19.4888 41.1986C19.3745 39.7124 18.5302 38.3669 17.2287 37.6106C17.2199 37.6018 17.2111 37.6018 17.2023 37.593C16.8154 37.3732 16.3405 37.3732 15.9536 37.593C15.7865 37.6898 15.5667 37.6282 15.4699 37.4611C15.382 37.294 15.4347 37.083 15.6018 36.9862Z" fill="#090E32"/>
    <path fill-rule="evenodd" clip-rule="evenodd" d="M14.9775 50.371V38.675C14.9775 38.1034 15.2853 37.5757 15.7778 37.2855C16.2702 37.0041 16.8858 37.0041 17.3783 37.2855C17.3871 37.2943 17.3959 37.2943 17.4047 37.3031C18.9172 38.1825 19.8582 39.8006 19.8582 41.5506C19.8582 47.4514 19.8582 48.4803 19.8582 48.4803L14.186 51.7517C14.6785 51.4703 14.9775 50.9427 14.9775 50.371Z" fill="#E5E9FE"/>
    <path fill-rule="evenodd" clip-rule="evenodd" d="M19.5064 48.278V41.5506C19.5064 39.9237 18.6358 38.4199 17.2288 37.6109C17.22 37.6021 17.2112 37.6021 17.2024 37.5933C16.8155 37.3734 16.3406 37.3734 15.9536 37.5933C15.5667 37.8131 15.3293 38.2264 15.3293 38.6749C15.3293 42.2101 15.3293 45.0066 15.3293 47.5129H14.9775H15.3293V50.371C15.3293 50.4853 15.3205 50.5908 15.3029 50.7052L19.5064 48.278ZM14.6257 50.371V38.6749C14.6257 37.9802 14.9951 37.3294 15.6019 36.9865C16.2087 36.6347 16.9474 36.6347 17.5542 36.9865C17.5629 36.9953 17.5717 36.9953 17.5805 37.0041C19.2074 37.945 20.21 39.6775 20.21 41.5506C20.21 47.4514 20.21 48.4803 20.21 48.4803C20.21 48.6034 20.1396 48.7177 20.0341 48.7881L14.3619 52.0595C14.1948 52.1562 13.975 52.0946 13.8782 51.9275C13.7815 51.7605 13.8431 51.5406 14.0102 51.4439C14.3883 51.2328 14.6257 50.8195 14.6257 50.371Z" fill="#090E32"/>
    <path fill-rule="evenodd" clip-rule="evenodd" d="M17.3607 37.2766C16.8682 37.004 16.2702 37.0128 15.7865 37.2942C15.2941 37.5756 14.9863 38.1121 14.9863 38.6837V50.3797V50.4501C14.9599 50.9953 14.6609 51.4878 14.186 51.7604C13.6936 52.0418 13.078 52.0418 12.5855 51.7604C12.5767 51.7516 12.5679 51.7516 12.5591 51.7428C11.0466 50.8634 10.1056 49.2453 10.1056 47.4953V24.2966L50.0921 1.21228V17.4812L15.7777 37.2942C16.2702 37.0128 16.8858 37.0128 17.3783 37.2942L17.3607 37.2766ZM17.475 37.3382L17.4926 37.347L17.4662 37.3294L17.475 37.3382ZM17.4926 37.3558C17.5014 37.3646 17.519 37.3734 17.5278 37.3821L17.4926 37.3558ZM17.5717 37.3997L17.5453 37.3821L17.5717 37.3997ZM17.5981 37.4261L17.6157 37.4349L17.5893 37.4173L17.5981 37.4261ZM17.6245 37.4349C17.6333 37.4437 17.6509 37.4525 17.6597 37.4613L17.6245 37.4349ZM17.6948 37.4877L17.6685 37.4701L17.6948 37.4877ZM17.7212 37.5053L17.7388 37.5141L17.7124 37.4965L17.7212 37.5053ZM17.7476 37.5229C17.7564 37.5316 17.774 37.5404 17.7828 37.5492L17.7476 37.5229ZM17.818 37.5668L17.7916 37.5492L17.818 37.5668ZM17.8443 37.5932L17.8619 37.602L17.8355 37.5844L17.8443 37.5932ZM17.8707 37.6108C17.8795 37.6196 17.8971 37.6284 17.9059 37.6372L17.8707 37.6108ZM17.9411 37.6636L17.9147 37.646L17.9411 37.6636ZM17.9675 37.6811L17.985 37.6899L17.9587 37.6724L17.9675 37.6811ZM17.9938 37.6987C18.0026 37.7075 18.0202 37.7163 18.029 37.7251L17.9938 37.6987ZM18.0554 37.7515L18.029 37.7339L18.0554 37.7515ZM18.0818 37.7779L18.0994 37.7955L18.073 37.7691L18.0818 37.7779ZM18.1082 37.7955C18.117 37.8043 18.1345 37.8131 18.1433 37.8218L18.1082 37.7955ZM18.1697 37.8482L18.1433 37.8306L18.1697 37.8482ZM18.1961 37.8746L18.2137 37.8922L18.1873 37.8658L18.1961 37.8746ZM18.2225 37.8922C18.2313 37.901 18.2489 37.9098 18.2577 37.9186L18.2225 37.8922ZM18.284 37.945L18.2665 37.9274L18.284 37.945ZM18.3104 37.9713L18.328 37.9889L18.3016 37.9626L18.3104 37.9713ZM18.328 37.9977C18.3368 38.0065 18.3544 38.0153 18.3632 38.0329L18.328 37.9977ZM18.3896 38.0505L18.372 38.0329L18.3896 38.0505ZM18.416 38.0769L18.4335 38.0945L18.4072 38.0681L18.416 38.0769ZM18.4335 38.0945C18.4423 38.1033 18.4511 38.1208 18.4687 38.1296L18.4335 38.0945ZM18.4951 38.156L18.5039 38.1648L18.4775 38.1384L18.4951 38.156ZM18.5215 38.1824L18.5391 38.2L18.5127 38.1736L18.5215 38.1824ZM18.5391 38.2088C18.5479 38.2176 18.5567 38.2352 18.5742 38.244L18.5391 38.2088ZM18.5918 38.2615L18.6006 38.2703L18.5742 38.2352L18.5918 38.2615ZM18.6182 38.2879L18.6358 38.3055L18.6094 38.2703L18.6182 38.2879ZM18.6358 38.3143C18.6446 38.3231 18.6534 38.3407 18.671 38.3495L18.6358 38.3143ZM18.6886 38.3759L18.6974 38.3847L18.671 38.3495L18.6886 38.3759ZM18.7062 38.3935C18.7325 38.4286 18.7677 38.4638 18.7941 38.5078L18.7677 38.4726C18.7589 38.4638 18.7501 38.4462 18.7325 38.4374L18.7062 38.3935ZM18.7941 38.5078C18.8205 38.543 18.8557 38.5869 18.882 38.6221L18.8557 38.5869C18.8469 38.5781 18.8381 38.5605 18.8293 38.5518L18.7941 38.5078ZM18.8908 38.6221C18.9172 38.6573 18.9524 38.7013 18.9788 38.7364L18.9524 38.6925C18.9436 38.6749 18.9348 38.6661 18.926 38.6485L18.8908 38.6221ZM18.97 38.7452C19.1634 39.0266 19.3305 39.3344 19.4712 39.651C19.3393 39.3256 19.1722 39.0266 18.97 38.7452ZM17.4486 37.3294L17.4134 37.303L17.4486 37.3294Z" fill="#EFF1F9"/>
    <path fill-rule="evenodd" clip-rule="evenodd" d="M49.7403 17.2791V1.81915L10.4574 24.499V47.4954C10.4574 49.1223 11.328 50.626 12.735 51.4351C12.7438 51.4439 12.7526 51.4439 12.7614 51.4527C13.1483 51.6725 13.6232 51.6725 14.0102 51.4527C14.3795 51.2416 14.617 50.8547 14.6345 50.4414C14.6345 50.4414 14.6345 50.371 14.6345 50.3798V38.6749C14.6345 37.9802 15.0039 37.3295 15.6107 36.9865L49.7403 17.2791ZM15.9536 37.5933C15.5667 37.8131 15.3293 38.2264 15.3293 38.6749V50.371V50.459C15.3029 51.1185 14.9335 51.7253 14.3531 52.0595C13.7463 52.4112 13.0076 52.4112 12.4009 52.0595C12.3921 52.0507 12.3833 52.0507 12.3745 52.0419C10.7476 51.1009 9.74506 49.3685 9.74506 47.4954V24.2967C9.74506 24.1736 9.81541 24.0505 9.92094 23.9889L49.9162 0.904567C50.0217 0.843009 50.1624 0.843009 50.268 0.904567C50.3735 0.966125 50.4438 1.08045 50.4438 1.21236V17.4813C50.4438 17.6044 50.3735 17.7276 50.268 17.7891L17.2552 36.8458C17.2727 36.8546 17.2815 36.8546 17.2991 36.8634C17.3167 36.8722 17.3343 36.881 17.3519 36.8898C17.3695 36.8985 17.3871 36.9073 17.4047 36.9161C17.4222 36.9249 17.4398 36.9337 17.4574 36.9425C17.475 36.9513 17.4926 36.9601 17.5102 36.9689L17.5366 36.9777L17.5454 36.9865L17.563 36.9953L17.6069 37.0217H17.6157H17.6245L17.6421 37.0305L17.6597 37.0393H17.6685H17.6773L17.7125 37.0656L17.7476 37.0832H17.7564H17.7652H17.774L17.7916 37.092L17.8092 37.1008H17.818H17.8268L17.862 37.1272L17.8883 37.1448L17.8971 37.1536H17.9059H17.9147L17.9323 37.1624L17.9499 37.1712H17.9587H17.9675L18.0027 37.1975L18.029 37.2151L18.0378 37.2239H18.0466H18.0554L18.073 37.2327L18.0906 37.2415H18.0994H18.1082L18.1434 37.2679L18.1697 37.2855L18.1785 37.2943H18.1873H18.1961L18.2137 37.3031L18.2313 37.3119H18.2401H18.2489L18.2841 37.3382L18.3104 37.3558L18.3192 37.3646H18.328H18.3368L18.3544 37.3734L18.372 37.3822H18.3808L18.416 37.4086L18.4424 37.4262L18.4512 37.435H18.4599H18.4687L18.4775 37.4438L18.4951 37.4614L18.5303 37.4878L18.5567 37.5053L18.5655 37.5141L18.5743 37.5229L18.5919 37.5405L18.627 37.5757L18.6534 37.6021L18.6622 37.6109L18.671 37.6197L18.6886 37.6372L18.7238 37.6724L18.7501 37.6988L18.7589 37.7076L18.7677 37.7164L18.7853 37.734L18.8205 37.7692L18.8381 37.7955L18.8469 37.8043L18.8557 37.8131L18.8733 37.8307L18.9084 37.8659L18.926 37.8923L18.9348 37.9011L18.9612 37.9362L18.97 37.945L18.9788 37.9538L19.0228 38.0066L19.0491 38.0418L19.0579 38.0506L19.0667 38.0682L19.1107 38.1297L19.1371 38.1649L19.1459 38.1737L19.1547 38.1913L19.1986 38.2528C19.4097 38.5518 19.5856 38.8772 19.7351 39.2202C19.8054 39.3873 19.7439 39.5719 19.5856 39.6599C19.4976 39.7126 19.3921 39.7214 19.2954 39.6863C19.1986 39.6511 19.1195 39.5807 19.0843 39.4928C18.9612 39.1938 18.8029 38.9124 18.6182 38.6574L18.5919 38.6134L18.5391 38.543L18.5039 38.4991L18.4512 38.4375L18.416 38.3935L18.3632 38.332L18.3368 38.2968L18.3104 38.2616L18.2841 38.2264L18.2577 38.1913L18.2225 38.1561L18.1961 38.1297L18.1697 38.1033L18.1346 38.0682L18.1082 38.0418L18.0818 38.0154L18.0466 37.9802L18.0202 37.9538L17.9939 37.9275L17.9587 37.9011L17.9323 37.8747L17.9059 37.8483L17.8707 37.8219L17.8444 37.7955L17.8092 37.7692L17.774 37.7428L17.7476 37.7252L17.7125 37.6988L17.6773 37.6724L17.6509 37.6548L17.6157 37.6285L17.5805 37.6021L17.5542 37.5845L17.519 37.5581L17.4838 37.5317L17.4574 37.5141L17.4222 37.4878L17.3871 37.4614H17.3783L17.3519 37.4438L17.3167 37.4174L17.3079 37.4086L17.2991 37.3998L17.2727 37.3822L17.2552 37.3734L17.2376 37.3646L17.22 37.3558L17.2024 37.347L17.1848 37.3382L17.1672 37.3295L17.1496 37.3207L17.132 37.3119L17.1145 37.3031L17.0969 37.2943L17.0793 37.2855L17.0617 37.2767L17.0441 37.2679L17.0265 37.2591L17.0089 37.2503L16.9913 37.2415H16.9738L16.9562 37.2327H16.9386H16.921H16.9034H16.8858H16.8682H16.8506H16.833H16.8155H16.7979H16.7803H16.7627H16.7451H16.7275H16.7099H16.6923H16.6748H16.6572H16.6396H16.622H16.6044H16.5868H16.5692H16.5516H16.5341H16.5165L16.4989 37.2415H16.4813L16.4637 37.2503L16.4461 37.2591L16.4285 37.2679L16.4109 37.2767L16.3933 37.2855L16.3758 37.2943L16.3582 37.3031L16.3406 37.3119L16.323 37.3207L16.3054 37.3295L16.2878 37.3382L16.2702 37.347L16.2438 37.3558L16.2263 37.3646L16.1999 37.3734L16.1911 37.3822L15.9536 37.5933Z" fill="#090E32"/>
    <path fill-rule="evenodd" clip-rule="evenodd" d="M46.0556 28.5177L24.1233 41.1811V42.5882L46.0556 29.9247V28.5177Z" fill="#E5E9FE"/>
    <path fill-rule="evenodd" clip-rule="evenodd" d="M55.7994 22.8894L48.1838 27.2864V28.6935L55.7994 24.2964V22.8894Z" fill="#E5E9FE"/>
    <path fill-rule="evenodd" clip-rule="evenodd" d="M55.7994 27.8142L24.1233 46.1058V47.5128L55.7994 29.2213V27.8142Z" fill="#E5E9FE"/>
    <path fill-rule="evenodd" clip-rule="evenodd" d="M25.3369 21.4824L14.3707 27.8141V29.2212L25.3369 22.8895V21.4824Z" fill="#E5E9FE"/>
    <path fill-rule="evenodd" clip-rule="evenodd" d="M46.0556 9.52258L26.8582 20.6031V22.0101L46.0556 10.9296V9.52258Z" fill="#E5E9FE"/>
    <path fill-rule="evenodd" clip-rule="evenodd" d="M35.6963 20.4271L14.3707 32.7388V34.1458L35.6963 21.8342V20.4271Z" fill="#E5E9FE"/>
    <path fill-rule="evenodd" clip-rule="evenodd" d="M46.0556 14.4474L37.2176 19.5479V20.955L46.0556 15.8544V14.4474Z" fill="#E5E9FE"/>
    <path fill-rule="evenodd" clip-rule="evenodd" d="M39.9613 41.8849L24.1233 51.0307V52.4377L39.9613 43.2919V41.8849Z" fill="#E5E9FE"/>
    <path fill-rule="evenodd" clip-rule="evenodd" d="M141.647 129.79C141.497 129.702 141.304 129.702 141.154 129.79C140.741 130.027 139.932 130.502 139.519 130.739C139.466 130.766 139.439 130.819 139.439 130.88C139.439 130.942 139.475 130.994 139.519 131.021C140.961 131.856 148.251 136.06 149.685 136.895C149.834 136.983 150.027 136.983 150.177 136.895C150.59 136.658 151.399 136.183 151.813 135.946C151.865 135.919 151.892 135.858 151.892 135.805C151.892 135.743 151.857 135.691 151.813 135.664C150.379 134.829 143.089 130.625 141.647 129.79Z" fill="#3B426A"/>
    <path fill-rule="evenodd" clip-rule="evenodd" d="M128.552 122.227C128.403 122.139 128.209 122.139 128.06 122.227C127.647 122.464 126.829 122.939 126.424 123.177C126.372 123.203 126.345 123.256 126.345 123.317C126.345 123.379 126.38 123.432 126.424 123.458C127.867 124.293 135.157 128.497 136.59 129.332C136.74 129.42 136.933 129.42 137.083 129.332C137.496 129.095 138.314 128.62 138.718 128.383C138.771 128.356 138.798 128.295 138.798 128.242C138.798 128.18 138.762 128.128 138.718 128.101C137.276 127.266 129.986 123.062 128.552 122.227Z" fill="#3B426A"/>
    <path fill-rule="evenodd" clip-rule="evenodd" d="M116.364 128.559C116.214 128.471 116.021 128.471 115.871 128.559C115.74 128.638 115.581 128.726 115.449 128.805C115.397 128.831 115.37 128.884 115.37 128.946C115.37 129.007 115.405 129.06 115.449 129.086C116.381 129.623 119.688 131.531 120.62 132.068C120.77 132.156 120.963 132.156 121.113 132.068C121.245 131.997 121.403 131.9 121.535 131.821C121.588 131.795 121.614 131.733 121.614 131.681C121.614 131.628 121.579 131.566 121.535 131.54C120.603 131.003 117.296 129.095 116.364 128.559Z" fill="#535774"/>
    <path fill-rule="evenodd" clip-rule="evenodd" d="M117.885 127.679C117.736 127.592 117.542 127.592 117.393 127.679C117.261 127.759 117.103 127.847 116.971 127.926C116.918 127.952 116.892 128.005 116.892 128.066C116.892 128.128 116.927 128.181 116.971 128.207C118.387 129.025 125.422 133.088 126.838 133.906C126.987 133.994 127.181 133.994 127.33 133.906C127.462 133.827 127.62 133.739 127.752 133.659C127.805 133.633 127.831 133.571 127.831 133.519C127.831 133.457 127.796 133.404 127.752 133.378C126.336 132.56 119.301 128.497 117.885 127.679Z" fill="#535774"/>
    <path fill-rule="evenodd" clip-rule="evenodd" d="M136.379 137.476C138.147 136.456 141.014 136.456 142.781 137.476C144.549 138.496 144.549 140.149 142.781 141.169C141.014 142.189 138.147 142.189 136.379 141.169C134.612 140.149 134.612 138.496 136.379 137.476Z" fill="#3B426A"/>
    <path fill-rule="evenodd" clip-rule="evenodd" d="M136.555 137.784C138.226 136.816 140.934 136.816 142.605 137.784C143.353 138.215 143.757 138.76 143.757 139.323C143.757 139.885 143.353 140.431 142.605 140.862C140.934 141.829 138.226 141.829 136.555 140.862C135.808 140.431 135.412 139.885 135.412 139.323C135.403 138.76 135.808 138.215 136.555 137.784ZM136.203 137.168C135.183 137.757 134.699 138.549 134.699 139.323C134.699 140.096 135.183 140.888 136.203 141.477C138.068 142.55 141.093 142.55 142.948 141.477C143.968 140.888 144.452 140.096 144.452 139.323C144.452 138.549 143.968 137.757 142.948 137.168C141.093 136.095 138.068 136.095 136.203 137.168Z" fill="#3B426A"/>
    <path fill-rule="evenodd" clip-rule="evenodd" d="M133.055 135.761C134.726 134.794 137.434 134.794 139.096 135.761C139.844 136.192 140.249 136.737 140.249 137.3C140.249 137.863 139.844 138.408 139.096 138.839C137.426 139.798 134.717 139.798 133.055 138.839C132.308 138.408 131.903 137.863 131.903 137.3C131.903 136.737 132.308 136.192 133.055 135.761ZM132.703 135.145C131.683 135.735 131.199 136.526 131.199 137.3C131.199 138.074 131.683 138.865 132.703 139.455C134.568 140.527 137.593 140.527 139.448 139.455C140.468 138.865 140.952 138.074 140.952 137.3C140.952 136.526 140.468 135.735 139.448 135.145C137.584 134.073 134.559 134.073 132.703 135.145Z" fill="#3B426A"/>
    <path fill-rule="evenodd" clip-rule="evenodd" d="M162.814 128.383C162.814 128.383 163.773 128.743 164.863 128.787C165.628 128.822 166.455 128.691 167.088 128.224C167.765 127.714 168.249 126.809 168.161 125.217C168.152 125.023 167.985 124.874 167.791 124.883C167.598 124.891 167.448 125.059 167.457 125.252C167.536 126.51 167.202 127.248 166.666 127.653C166.165 128.031 165.505 128.11 164.889 128.084C163.913 128.04 163.051 127.723 163.051 127.723C162.867 127.653 162.664 127.75 162.603 127.925C162.541 128.11 162.629 128.312 162.814 128.383Z" fill="#9AA0D0"/>
    <path fill-rule="evenodd" clip-rule="evenodd" d="M163.315 127.301C163.315 127.301 163.948 127.539 164.678 127.574C165.206 127.591 165.76 127.503 166.2 127.187C166.666 126.844 167 126.228 166.938 125.138C166.93 124.944 166.763 124.795 166.569 124.804C166.376 124.812 166.226 124.979 166.235 125.173C166.279 125.929 166.094 126.378 165.778 126.615C165.479 126.844 165.074 126.879 164.714 126.87C164.107 126.844 163.57 126.642 163.57 126.642C163.386 126.571 163.183 126.668 163.122 126.844C163.034 127.028 163.131 127.231 163.315 127.301Z" fill="#9AA0D0"/>
    <path fill-rule="evenodd" clip-rule="evenodd" d="M163.86 126.36C163.86 126.36 164.168 126.474 164.52 126.492C164.793 126.501 165.092 126.448 165.311 126.281C165.558 126.096 165.751 125.78 165.716 125.208C165.707 125.015 165.54 124.865 165.347 124.874C165.153 124.883 165.004 125.05 165.012 125.243C165.03 125.481 164.995 125.63 164.889 125.709C164.793 125.78 164.661 125.788 164.546 125.78C164.309 125.771 164.098 125.692 164.098 125.692C163.913 125.621 163.711 125.718 163.649 125.894C163.579 126.087 163.676 126.299 163.86 126.36Z" fill="#9AA0D0"/>
    <path fill-rule="evenodd" clip-rule="evenodd" d="M135.148 139.859C134.849 139.024 135.254 138.127 136.379 137.476C137.496 136.834 139.061 136.597 140.504 136.764C140.803 137.599 140.398 138.496 139.272 139.147C138.156 139.789 136.59 140.026 135.148 139.859Z" fill="#262B55"/>
    <path fill-rule="evenodd" clip-rule="evenodd" d="M140.222 137.089C138.921 136.975 137.549 137.203 136.546 137.775C135.702 138.259 135.306 138.901 135.421 139.525C136.722 139.639 138.094 139.411 139.097 138.839C139.941 138.355 140.336 137.722 140.222 137.089ZM134.814 139.973C134.858 140.097 134.972 140.185 135.104 140.202C136.625 140.387 138.27 140.123 139.448 139.446C140.759 138.69 141.181 137.617 140.829 136.641C140.785 136.517 140.671 136.429 140.539 136.412C139.017 136.227 137.373 136.482 136.194 137.168C134.893 137.924 134.471 139.006 134.814 139.973Z" fill="#3B426A"/>
    </svg>
