<svg width="62" height="73" viewBox="0 0 62 73" fill="none" xmlns="http://www.w3.org/2000/svg">
<circle cx="31" cy="31" r="31" fill="#080E31"/>
<circle cx="31.0001" cy="31" r="28.7037" fill="#F2F2F2"/>
<g filter="url(#filter0_f)">
<ellipse cx="31" cy="70.5" rx="17" ry="0.5" fill="#080E31" fill-opacity="0.4"/>
</g>
<path d="M12.0386 35.4622H14.9702C15.028 35.7901 15.0666 36.0794 15.1438 36.388C15.4331 37.4295 16.0695 38.201 17.0532 38.6446C18.384 39.2425 19.6376 39.0882 20.7756 38.1817C21.5856 37.5452 22.0292 36.6966 22.0678 35.6744C22.0678 35.5008 22.1449 35.4622 22.2992 35.4622C23.1671 35.4622 24.0158 35.4622 24.8837 35.4622C25.0765 35.4622 25.0958 35.5394 25.0958 35.6937C25.038 36.9859 24.6522 38.1624 23.9 39.2232C23.225 40.1682 22.3764 40.9011 21.3156 41.3833C20.1005 41.9426 18.8276 42.1355 17.4775 41.9041C15.7417 41.6147 14.3723 40.7661 13.3115 39.3775C12.5979 38.4517 12.1543 37.4102 12.0579 36.2337C12.0386 36.0023 12.0193 35.7708 12 35.5587C12.0193 35.5201 12.0386 35.5008 12.0386 35.4622Z" fill="#080E31"/>
<path d="M18.5779 32.2429C16.5913 32.2429 14.9712 30.6228 14.9712 28.6362C14.9712 27.2476 15.7427 26.0518 16.8999 25.4539C17.2278 25.2803 17.575 25.1453 17.9414 25.0874C17.9221 25.0874 17.9029 25.1067 17.9029 25.1067C18.115 25.0681 18.3465 25.0489 18.5779 25.0489C20.5645 25.0489 22.1846 26.669 22.1846 28.6555C22.1653 30.6228 20.5645 32.2429 18.5779 32.2429ZM24.499 25.7818C24.3833 25.531 24.2483 25.2996 24.1132 25.0296H24.904C24.904 24.1038 24.904 23.2166 24.904 22.3294C24.904 22.098 24.8462 22.0208 24.6147 22.0208C22.7246 22.0401 20.8538 22.0208 18.9636 22.0208C17.9414 22.0208 16.9385 22.1558 15.9742 22.5608C14.7012 23.1202 13.6983 23.9881 12.9847 25.1646C12.4639 25.9939 12.1746 26.9004 12.0589 27.884C11.9625 28.7327 12.0396 29.562 12.2711 30.3721C12.5218 31.2593 12.9461 32.0693 13.5633 32.7829C14.6434 34.0559 16.0127 34.808 17.6328 35.0588C18.6165 35.2131 19.6194 35.1166 20.5837 34.808C21.8567 34.3837 22.8982 33.6701 23.7275 32.6286C24.499 31.645 24.9619 30.5456 25.0969 29.292C25.2126 28.0769 25.0197 26.9004 24.499 25.7818Z" fill="#080E31"/>
<path d="M32.4247 26.9182C32.9455 27.0917 33.4084 27.2653 33.852 27.4389C34.2763 27.6125 34.662 27.8247 34.9899 28.0754C35.3178 28.3261 35.5685 28.6154 35.7421 28.9626C35.9157 29.3097 36.0121 29.7341 36.0121 30.2162V30.2355C36.0121 31.412 35.6071 32.3378 34.8163 33.0128C34.0256 33.6879 32.9069 34.0158 31.4797 34.0158C30.5925 34.0158 29.7053 33.8615 28.8374 33.5529C27.9695 33.2443 27.1594 32.82 26.4072 32.2414L26.3879 32.2221L26.4072 32.2028L28.0273 29.7148L28.0466 29.7341C28.5095 30.2355 29.0495 30.602 29.6474 30.872C30.2453 31.1227 30.8818 31.2577 31.5568 31.2577C32.4826 31.2577 32.9455 30.9684 32.9455 30.3705C32.9455 30.1005 32.7912 29.8884 32.5019 29.7341C32.2126 29.5991 31.8461 29.464 31.4411 29.3483C31.364 29.3097 31.2868 29.2905 31.2097 29.2905C31.1325 29.2905 31.0554 29.2712 30.9782 29.2326C30.5153 29.1169 30.0332 28.9819 29.5703 28.8276C29.1074 28.6733 28.6831 28.4804 28.2973 28.2297C27.9116 27.9789 27.603 27.6511 27.3716 27.246C27.1208 26.8603 27.0051 26.3396 27.0051 25.7224V25.6645C27.0051 25.1245 27.1016 24.623 27.3137 24.1794C27.5259 23.7358 27.8152 23.3501 28.1816 23.0222C28.5674 22.6943 29.011 22.4436 29.551 22.27C30.091 22.0964 30.6696 22 31.3061 22C32.0583 22 32.8105 22.1157 33.582 22.3472C34.3534 22.5786 35.0671 22.9065 35.7228 23.3308V23.3694L34.2956 25.9538L34.2763 25.9345C33.9098 25.5874 33.4662 25.2981 32.9262 25.0859C32.3862 24.8738 31.8269 24.7773 31.229 24.7773C31.1132 24.7773 30.9975 24.7773 30.8432 24.7966C30.7082 24.8159 30.5732 24.8545 30.4575 24.9123C30.3418 24.9702 30.2453 25.0473 30.1682 25.1631C30.091 25.2595 30.0525 25.4138 30.0525 25.5874C30.0525 25.7224 30.1103 25.8574 30.2453 25.9731C30.361 26.0888 30.5346 26.2046 30.7275 26.301C30.9204 26.3974 31.1518 26.4939 31.3833 26.5903C31.634 26.6867 31.8654 26.7639 32.0969 26.841C32.1354 26.841 32.1933 26.841 32.2512 26.8603C32.3283 26.8796 32.3669 26.8989 32.4247 26.9182Z" fill="#080E31"/>
<path d="M50.1364 22.2314V33.8807H47.0504V28.0368C47.0504 27.5932 46.9733 27.1689 46.7997 26.7832C46.6261 26.3974 46.3947 26.0503 46.0861 25.761C45.7775 25.4716 45.4303 25.2402 45.0253 25.0666C44.6203 24.9123 44.196 24.8159 43.7717 24.8159C43.3088 24.8159 42.8845 24.893 42.4987 25.0666C42.113 25.2402 41.7658 25.4716 41.4572 25.761C41.1486 26.0503 40.9172 26.3974 40.7436 26.7832C40.57 27.1882 40.4929 27.6125 40.4929 28.0561C40.4929 28.4997 40.57 28.9047 40.7436 29.2905C40.9172 29.6762 41.1486 30.0234 41.4572 30.3127C41.7658 30.602 42.113 30.8334 42.4987 31.007C42.8845 31.1806 43.3088 31.2577 43.7717 31.2577C44.2538 31.2577 44.6782 31.1806 45.0253 31.007H45.0446V31.0456L46.2211 33.1093L46.2018 33.1286C45.4303 33.7265 44.4853 34.0158 43.3474 34.0158C42.518 34.0158 41.7273 33.8615 40.9944 33.5529C40.2614 33.2443 39.6057 32.82 39.0657 32.2799C38.5256 31.7399 38.082 31.1034 37.7541 30.3705C37.4263 29.6376 37.272 28.8661 37.272 28.0368C37.272 27.2075 37.4263 26.4167 37.7541 25.6838C38.082 24.9509 38.5063 24.3144 39.0657 23.7744C39.6057 23.2344 40.2614 22.7908 40.9944 22.4822C41.7273 22.1736 42.518 22 43.3474 22C44.1574 22 44.871 22.1543 45.4882 22.4436C46.1054 22.7522 46.6261 23.1765 47.0697 23.7551V22.2314H50.1364Z" fill="#080E31"/>
<defs>
<filter id="filter0_f" x="12" y="68" width="38" height="5" filterUnits="userSpaceOnUse" color-interpolation-filters="sRGB">
<feFlood flood-opacity="0" result="BackgroundImageFix"/>
<feBlend mode="normal" in="SourceGraphic" in2="BackgroundImageFix" result="shape"/>
<feGaussianBlur stdDeviation="1" result="effect1_foregroundBlur"/>
</filter>
</defs>
</svg>
