<svg width="69" height="51" viewBox="0 0 69 51" fill="none" xmlns="http://www.w3.org/2000/svg">
<path d="M41.6875 43.4125H3.59379C1.58121 43.4125 0 41.6875 0 39.675V3.59366C0 1.58121 1.58121 0 3.59379 0H38.0938C40.1062 0 41.6876 1.58121 41.6876 3.59379V43.4125H41.6875Z" fill="#E8E8E8"/>
<path d="M67.9937 20.125L58.7937 10.9249C58.2187 10.3499 57.3562 9.91864 56.4937 9.91864H41.6875V43.4125H65.2625C67.275 43.4125 69 41.6875 69 39.675V22.425C69 21.4187 68.7126 20.7 67.9937 20.125Z" fill="#080E31"/>
<path d="M0 37.0875V39.675C0 41.6875 1.58121 43.2688 3.59379 43.2688H65.2625C67.275 43.2688 69 41.5438 69 39.5313V36.9438H0V37.0875Z" fill="#344A5E"/>
<path d="M64.1124 27.4562V22.9999L55.9187 14.6625H46.575V27.4562H64.1124Z" fill="#E8E8E8"/>
<path d="M17.5375 50.5999C22.4597 50.5999 26.4499 46.6096 26.4499 41.6874C26.4499 36.7652 22.4597 32.775 17.5375 32.775C12.6152 32.775 8.625 36.7652 8.625 41.6874C8.625 46.6096 12.6152 50.5999 17.5375 50.5999Z" fill="#415A6B"/>
<path d="M17.5376 45.9999C19.9193 45.9999 21.8501 44.0692 21.8501 41.6874C21.8501 39.3057 19.9193 37.3749 17.5376 37.3749C15.1559 37.3749 13.2251 39.3057 13.2251 41.6874C13.2251 44.0692 15.1559 45.9999 17.5376 45.9999Z" fill="#E8EAE9"/>
<path d="M53.7623 50.5999C58.6845 50.5999 62.6748 46.6097 62.6748 41.6875C62.6748 36.7653 58.6845 32.775 53.7623 32.775C48.8401 32.775 44.8499 36.7653 44.8499 41.6875C44.8499 46.6097 48.8401 50.5999 53.7623 50.5999Z" fill="#415A6B"/>
<path d="M53.7625 45.9999C56.1442 45.9999 58.075 44.0692 58.075 41.6874C58.075 39.3057 56.1442 37.3749 53.7625 37.3749C51.3807 37.3749 49.45 39.3057 49.45 41.6874C49.45 44.0692 51.3807 45.9999 53.7625 45.9999Z" fill="#E8EAE9"/>
<path d="M7.31531 21.8163H9.42113C9.46269 22.0519 9.4904 22.2597 9.54582 22.4813C9.75363 23.2295 10.2108 23.7836 10.9174 24.1023C11.8733 24.5318 12.7738 24.4209 13.5912 23.7698C14.1731 23.3126 14.4917 22.703 14.5194 21.9687C14.5194 21.8441 14.5749 21.8163 14.6857 21.8163C15.3091 21.8163 15.9187 21.8163 16.5421 21.8163C16.6807 21.8163 16.6945 21.8718 16.6945 21.9826C16.653 22.9108 16.3759 23.7559 15.8356 24.5179C15.3507 25.1968 14.7411 25.7232 13.9791 26.0696C13.1063 26.4713 12.192 26.6099 11.2222 26.4436C9.9753 26.2358 8.99165 25.6262 8.22968 24.6287C7.71708 23.9637 7.39843 23.2156 7.32916 22.3705C7.31531 22.2043 7.30145 22.038 7.2876 21.8856C7.30145 21.8579 7.31531 21.8441 7.31531 21.8163Z" fill="#080E31"/>
<path d="M12.0126 19.5038C10.5857 19.5038 9.42192 18.3401 9.42192 16.9131C9.42192 15.9156 9.97609 15.0566 10.8073 14.6272C11.0429 14.5025 11.2922 14.4055 11.5555 14.3639C11.5416 14.3639 11.5277 14.3778 11.5277 14.3778C11.6801 14.3501 11.8464 14.3362 12.0126 14.3362C13.4396 14.3362 14.6034 15.5 14.6034 16.927C14.5895 18.3401 13.4396 19.5038 12.0126 19.5038ZM16.2659 14.8627C16.1827 14.6826 16.0858 14.5163 15.9888 14.3224H16.5568C16.5568 13.6574 16.5568 13.0201 16.5568 12.3828C16.5568 12.2165 16.5152 12.1611 16.349 12.1611C14.9913 12.175 13.6474 12.1611 12.2897 12.1611C11.5555 12.1611 10.835 12.2581 10.1423 12.549C9.22796 12.9508 8.50755 13.5743 7.99495 14.4194C7.62088 15.0151 7.41307 15.6662 7.32995 16.3728C7.26068 16.9824 7.31609 17.5781 7.48234 18.16C7.66245 18.7973 7.96724 19.3791 8.41057 19.8917C9.1864 20.8061 10.17 21.3464 11.3338 21.5265C12.0403 21.6374 12.7608 21.5681 13.4535 21.3464C14.3678 21.0416 15.116 20.529 15.7117 19.7809C16.2659 19.0743 16.5984 18.2847 16.6953 17.3841C16.7785 16.5113 16.6399 15.6662 16.2659 14.8627Z" fill="#080E31"/>
<path d="M21.9591 15.679C22.3332 15.8037 22.6657 15.9284 22.9843 16.053C23.2891 16.1777 23.5662 16.3301 23.8017 16.5102C24.0373 16.6903 24.2174 16.8981 24.3421 17.1475C24.4667 17.3969 24.536 17.7017 24.536 18.048V18.0619C24.536 18.907 24.2451 19.572 23.6771 20.0569C23.109 20.5418 22.3055 20.7773 21.2803 20.7773C20.643 20.7773 20.0057 20.6665 19.3823 20.4448C18.7588 20.2231 18.177 19.9183 17.6367 19.5027L17.6228 19.4889L17.6367 19.475L18.8004 17.6878L18.8143 17.7017C19.1468 18.0619 19.5347 18.3251 19.9641 18.5191C20.3936 18.6992 20.8508 18.7962 21.3357 18.7962C22.0007 18.7962 22.3332 18.5883 22.3332 18.1589C22.3332 17.9649 22.2224 17.8125 22.0146 17.7017C21.8067 17.6047 21.5435 17.5077 21.2526 17.4246C21.1972 17.3969 21.1417 17.383 21.0863 17.383C21.0309 17.383 20.9755 17.3692 20.9201 17.3415C20.5876 17.2583 20.2412 17.1614 19.9087 17.0505C19.5762 16.9397 19.2714 16.8012 18.9944 16.6211C18.7173 16.441 18.4956 16.2054 18.3294 15.9145C18.1493 15.6374 18.0661 15.2634 18.0661 14.82V14.7785C18.0661 14.3905 18.1354 14.0303 18.2878 13.7117C18.4402 13.393 18.648 13.116 18.9112 12.8804C19.1883 12.6449 19.507 12.4648 19.8949 12.3401C20.2828 12.2154 20.6984 12.1462 21.1556 12.1462C21.6959 12.1462 22.2362 12.2293 22.7904 12.3956C23.3446 12.5618 23.8572 12.7973 24.3282 13.1021V13.1298L23.303 14.9863L23.2891 14.9724C23.0259 14.723 22.7073 14.5152 22.3193 14.3628C21.9314 14.2104 21.5297 14.1412 21.1002 14.1412C21.0171 14.1412 20.9339 14.1412 20.8231 14.155C20.7261 14.1689 20.6291 14.1966 20.546 14.2382C20.4629 14.2797 20.3936 14.3351 20.3382 14.4183C20.2828 14.4875 20.2551 14.5984 20.2551 14.723C20.2551 14.82 20.2966 14.917 20.3936 15.0001C20.4768 15.0833 20.6014 15.1664 20.74 15.2356C20.8785 15.3049 21.0448 15.3742 21.211 15.4435C21.3911 15.5127 21.5574 15.5681 21.7236 15.6236C21.7513 15.6236 21.7929 15.6236 21.8345 15.6374C21.8899 15.6513 21.9176 15.6651 21.9591 15.679Z" fill="#080E31"/>
<path d="M34.6816 12.3124V20.6803H32.465V16.4825C32.465 16.1639 32.4095 15.8591 32.2849 15.582C32.1602 15.3049 31.9939 15.0555 31.7723 14.8477C31.5506 14.6399 31.3012 14.4737 31.0103 14.349C30.7193 14.2382 30.4145 14.1689 30.1098 14.1689C29.7773 14.1689 29.4725 14.2243 29.1954 14.349C28.9183 14.4737 28.6689 14.6399 28.4473 14.8477C28.2256 15.0555 28.0593 15.3049 27.9347 15.582C27.81 15.8729 27.7546 16.1777 27.7546 16.4964C27.7546 16.815 27.81 17.106 27.9347 17.383C28.0593 17.6601 28.2256 17.9095 28.4473 18.1173C28.6689 18.3251 28.9183 18.4914 29.1954 18.6161C29.4725 18.7407 29.7773 18.7962 30.1098 18.7962C30.4561 18.7962 30.7609 18.7407 31.0103 18.6161H31.0241V18.6438L31.8692 20.1262L31.8554 20.14C31.3012 20.5695 30.6224 20.7773 29.805 20.7773C29.2092 20.7773 28.6412 20.6665 28.1148 20.4448C27.5883 20.2231 27.1173 19.9183 26.7294 19.5304C26.3414 19.1425 26.0228 18.6853 25.7873 18.1589C25.5518 17.6324 25.4409 17.0782 25.4409 16.4825C25.4409 15.8868 25.5518 15.3188 25.7873 14.7923C26.0228 14.2659 26.3276 13.8087 26.7294 13.4208C27.1173 13.0328 27.5883 12.7142 28.1148 12.4925C28.6412 12.2709 29.2092 12.1462 29.805 12.1462C30.3868 12.1462 30.8994 12.257 31.3428 12.4648C31.7861 12.6865 32.1602 12.9913 32.4788 13.4069V12.3124H34.6816Z" fill="#080E31"/>
</svg>
